<svg width="436" height="382" viewBox="0 0 436 382" fill="none" xmlns="http://www.w3.org/2000/svg">
<path d="M421.5 365L414.613 358.457C412.625 356.569 411.5 353.948 411.5 351.207V347.876C411.5 346.636 411.269 345.407 410.82 344.252L409.145 339.944C408.4 338.028 407.082 336.388 405.372 335.248L400.749 332.166C399.595 331.397 398.615 330.397 397.869 329.229L388.164 314.039C387.723 313.349 387.199 312.716 386.603 312.153L381.39 307.23C379.534 305.477 377.078 304.5 374.524 304.5H365.538C362.654 304.5 359.911 303.255 358.012 301.085L347 288.5L329.961 263.888C329.325 262.969 328.847 261.95 328.548 260.873L319.704 229.035C319.243 227.373 318.359 225.859 317.14 224.64L297.493 204.993C296.508 204.008 295.33 203.24 294.031 202.738L280.5 197.5L267.461 194.432C264.922 193.834 262.716 192.268 261.315 190.067L258.451 185.565C257.191 183.585 255.274 182.111 253.037 181.402L237.417 176.449C236.478 176.151 235.587 175.716 234.775 175.158L197.777 149.721C196.606 148.916 195.62 147.871 194.885 146.655L184.137 128.881C183.388 127.642 182.379 126.58 181.179 125.769L167.01 116.196C165.373 115.09 164.101 113.524 163.353 111.696L161.174 106.369C160.409 104.5 159.097 102.907 157.41 101.798L128.022 82.4859C126.069 81.2026 124.627 79.276 123.947 77.0405L115.769 50.1695C114.96 47.5106 113.08 45.3084 110.582 44.0912L96.1642 37.0672C95.3913 36.6906 94.6702 36.216 94.0187 35.655L61.0607 7.27453C59.7114 6.11261 58.0763 5.33206 56.3244 5.01352L43.2888 2.64343C37.1504 1.52735 31.5 6.24309 31.5 12.4821V15.2328C31.5 17.661 30.6165 20.0062 29.0144 21.8308L13.5 39.5" stroke="#BF5002" stroke-width="4" stroke-linecap="round" stroke-linejoin="round"/>
<circle cx="13" cy="42" r="13" fill="#BF5002"/>
<circle cx="13" cy="42" r="5" fill="white"/>
<circle cx="423" cy="369" r="13" fill="#BF5002"/>
<circle cx="423" cy="369" r="5" fill="white"/>
</svg>
