<svg width="296" height="396" viewBox="0 0 296 396" fill="none" xmlns="http://www.w3.org/2000/svg">
<circle cx="267" cy="383" r="13" fill="#BF5002"/>
<circle cx="267" cy="383" r="5" fill="white"/>
<path d="M270.5 376L274.5 370.667C275.798 368.936 276.5 366.83 276.5 364.667V355.237C276.5 353.153 275.731 351.141 274.341 349.587V349.587C270.964 345.812 271.631 339.937 275.77 337.016L276.5 336.5L277.235 335.986C279.908 334.114 281.5 331.057 281.5 327.793V325.5V322.533C281.5 320.858 282.858 319.5 284.533 319.5V319.5C285.46 319.5 286.335 319.076 286.911 318.35L291.454 312.61C293.913 309.504 294.307 305.239 292.458 301.736L287.246 291.861C286.43 290.314 285.222 289.008 283.742 288.074L278.946 285.045C277.348 284.036 275.497 283.5 273.606 283.5H263.603C261.274 283.5 259.019 282.687 257.225 281.202L228.864 257.715C228.29 257.24 227.664 256.83 226.999 256.494L185.651 235.582C184.887 235.196 184.076 234.909 183.239 234.729L133.101 223.952C131.716 223.654 130.41 223.066 129.27 222.225L123.6 218.047C122.223 217.033 121.129 215.682 120.423 214.124L107.891 186.467C107.304 185.171 107 183.764 107 182.34V157.31C107 155.472 106.494 153.67 105.536 152.101L89 125L78.9422 107.758C78.648 107.254 78.3985 106.724 78.1966 106.176L75.8997 99.9419C75.3097 98.3406 74.3198 96.917 73.0241 95.8064L49.3552 75.5187C47.8211 74.2038 46.7213 72.455 46.2007 70.5028L43.5136 60.4259C43.1745 59.1545 42.5879 57.9625 41.7873 56.9182L32.7531 45.1345C31.9264 44.0561 30.8886 43.1576 29.7031 42.4937L22.5818 38.5058C20.2868 37.2206 18.5907 35.0831 17.8607 32.5561L12.5 14" stroke="#BF5002" stroke-width="4" stroke-linecap="round" stroke-linejoin="round"/>
<circle cx="13" cy="13" r="13" fill="#BF5002"/>
<circle cx="13" cy="13" r="5" fill="white"/>
</svg>
