<svg width="161" height="160" viewBox="0 0 161 160" fill="none" xmlns="http://www.w3.org/2000/svg">
<path fill-rule="evenodd" clip-rule="evenodd" d="M79.8635 19.9949C80.4158 19.9949 80.8635 20.4426 80.8635 20.9949V26.1797L86.9952 23.0595C87.4875 22.809 88.0895 23.005 88.34 23.4972C88.5905 23.9894 88.3945 24.5915 87.9023 24.842L82.0677 27.811L135.484 55.0152C135.758 55.1546 135.953 55.412 136.012 55.7134L151.435 134.133C151.526 134.598 151.279 135.063 150.843 135.247L139.781 139.926C139.658 139.978 139.525 140.005 139.391 140.005H19.9127C19.7575 140.005 19.6046 139.969 19.4658 139.9L10.0994 135.221C9.70235 135.022 9.48355 134.586 9.56212 134.149L23.6672 55.7293C23.7226 55.4213 23.9189 55.157 24.1978 55.0151L77.6592 27.8103L71.8306 24.8418C71.3384 24.5912 71.1427 23.9891 71.3933 23.4969C71.6439 23.0048 72.2461 22.809 72.7382 23.0596L78.8635 26.1791V20.9949C78.8635 20.4426 79.3112 19.9949 79.8635 19.9949ZM79.8633 28.9328L37.2863 50.5988L21.1147 138.005H138.195L122.403 50.5975L79.8633 28.9328ZM124.641 51.7374L140.153 137.597L149.316 133.722L134.143 56.5766L124.641 51.7374ZM19.1711 137.517L35.041 51.7414L25.5476 56.5723L11.6631 133.766L19.1711 137.517Z" fill="black"/>
<path opacity="0.1" fill-rule="evenodd" clip-rule="evenodd" d="M24.5635 56.3952L10.679 133.589C10.6004 134.026 10.8192 134.462 11.2163 134.661L19.7017 138.9C19.8405 138.969 19.9935 139.005 20.1486 139.005H139.189C139.323 139.005 139.455 138.978 139.578 138.926L149.705 134.643C150.141 134.458 150.388 133.993 150.297 133.529L135.125 56.3836C135.065 56.0823 134.871 55.8249 134.597 55.6855L123.299 49.9315L80.3172 28.0416C80.0322 27.8965 79.6949 27.8964 79.4099 28.0415L36.3929 49.9315L25.0942 55.681C24.8153 55.8229 24.6189 56.0872 24.5635 56.3952ZM54.4891 67.366C52.4772 67.366 50.7783 68.8604 50.5217 70.8559L42.484 133.367C42.0996 136.357 44.4286 139.005 47.4432 139.005H112.202C115.221 139.005 117.552 136.349 117.159 133.355L108.965 70.8461C108.704 68.8549 107.007 67.366 104.999 67.366H54.4891Z" fill="#BF5002"/>
<path fill-rule="evenodd" clip-rule="evenodd" d="M50.39 62.496C50.39 59.2542 53.0181 56.6261 56.26 56.6261H103.748C106.99 56.6261 109.618 59.2542 109.618 62.496C109.618 65.7379 106.99 68.366 103.748 68.366H56.26C53.0181 68.366 50.39 65.7379 50.39 62.496ZM56.26 58.6261C54.1227 58.6261 52.39 60.3587 52.39 62.496C52.39 64.6334 54.1226 66.366 56.26 66.366H103.748C105.886 66.366 107.618 64.6334 107.618 62.496C107.618 60.3587 105.886 58.6261 103.748 58.6261H56.26Z" fill="#BF5002"/>
<path fill-rule="evenodd" clip-rule="evenodd" d="M80.0042 99.4412C76.7623 99.4412 74.1342 96.8131 74.1342 93.5712L74.1342 79.8151C74.1342 76.5732 76.7623 73.9451 80.0042 73.9451C83.2461 73.9451 85.8741 76.5732 85.8741 79.8151L85.8741 93.5712C85.8741 96.8131 83.2461 99.4412 80.0042 99.4412ZM76.1342 93.5712C76.1342 95.7085 77.8669 97.4412 80.0042 97.4412C82.1415 97.4412 83.8741 95.7085 83.8741 93.5712L83.8741 79.8151C83.8741 77.6778 82.1415 75.9451 80.0042 75.9451C77.8669 75.9451 76.1342 77.6778 76.1342 79.8151L76.1342 93.5712Z" fill="black"/>
<path fill-rule="evenodd" clip-rule="evenodd" d="M76.1342 53.2309L76.1342 67.3661L74.1342 67.3661L74.1342 53.2309C74.1342 49.989 76.7623 47.361 80.0042 47.361C83.2461 47.361 85.8741 49.989 85.8741 53.2309L85.8741 67.3661L83.8741 67.3661L83.8741 53.2309C83.8741 51.0936 82.1415 49.361 80.0042 49.361C77.8669 49.361 76.1342 51.0936 76.1342 53.2309Z" fill="black"/>
<path opacity="0.1" d="M106.973 102.276C107.438 102.574 107.574 103.194 107.262 103.649C104.342 107.905 100.447 111.407 95.8949 113.86C91.0494 116.471 85.6195 117.806 80.1158 117.741C74.6121 117.676 69.2153 116.212 64.433 113.487C59.9407 110.928 56.1292 107.334 53.3112 103.01C53.0097 102.548 53.1606 101.932 53.6324 101.644L66.1424 94.0293C66.6142 93.7422 67.2268 93.8939 67.5432 94.3466C68.8832 96.2635 70.6344 97.8629 72.6737 99.0249C75.0032 100.352 77.632 101.065 80.3129 101.097C82.9938 101.129 85.6387 100.478 87.9989 99.2063C90.0652 98.0929 91.8538 96.5355 93.2388 94.6508C93.5658 94.2058 94.1819 94.0686 94.6467 94.3669L106.973 102.276Z" fill="#BF5002"/>
<path fill-rule="evenodd" clip-rule="evenodd" d="M79.0299 74.9456L78.9986 67.366L80.9986 67.3578L81.0299 74.9373L79.0299 74.9456Z" fill="black"/>
<path fill-rule="evenodd" clip-rule="evenodd" d="M68.5055 84.2898C68.5055 83.7375 68.9532 83.2898 69.5055 83.2898H90.0208C90.5731 83.2898 91.0208 83.7375 91.0208 84.2898C91.0208 84.8421 90.5731 85.2898 90.0208 85.2898H69.5055C68.9532 85.2898 68.5055 84.8421 68.5055 84.2898Z" fill="black"/>
<path fill-rule="evenodd" clip-rule="evenodd" d="M60.1617 102.085C59.8855 101.606 60.0494 100.995 60.5277 100.719L65.5478 97.8204C66.0261 97.5442 66.6377 97.7081 66.9138 98.1864C67.19 98.6647 67.0261 99.2763 66.5478 99.5524L61.5277 102.451C61.0494 102.727 60.4378 102.563 60.1617 102.085Z" fill="#BF5002"/>
<path fill-rule="evenodd" clip-rule="evenodd" d="M101.407 102.338C101.7 101.869 101.558 101.252 101.089 100.96L96.1743 97.8866C95.706 97.5939 95.089 97.7362 94.7962 98.2044C94.5035 98.6727 94.6457 99.2897 95.114 99.5825L100.029 102.655C100.497 102.948 101.114 102.806 101.407 102.338Z" fill="#BF5002"/>
<path fill-rule="evenodd" clip-rule="evenodd" d="M80.1941 113.523C80.7463 113.523 81.1941 113.076 81.1941 112.523L81.1941 106.727C81.1941 106.174 80.7463 105.727 80.1941 105.727C79.6418 105.727 79.1941 106.174 79.1941 106.727L79.1941 112.523C79.1941 113.076 79.6418 113.523 80.1941 113.523Z" fill="#BF5002"/>
<path fill-rule="evenodd" clip-rule="evenodd" d="M49.5299 70.7284C49.8506 68.2341 51.9742 66.3661 54.4891 66.3661H104.999C107.509 66.3661 109.63 68.2273 109.956 70.7162L118.151 133.225C118.622 136.818 115.825 140.005 112.202 140.005H47.4432C43.8257 140.005 41.0308 136.828 41.4922 133.24L49.5299 70.7284ZM54.4891 68.3661C52.9801 68.3661 51.706 69.4869 51.5136 70.9835L43.4758 133.495C43.1683 135.887 45.0315 138.005 47.4432 138.005H112.202C114.617 138.005 116.482 135.88 116.168 133.485L107.973 70.9762C107.777 69.4828 106.505 68.3661 104.999 68.3661H54.4891Z" fill="black"/>
</svg>
