<svg width="160" height="160" viewBox="0 0 160 160" fill="none" xmlns="http://www.w3.org/2000/svg">
<path fill-rule="evenodd" clip-rule="evenodd" d="M50.8924 17.5859C50.8924 17.0337 51.3401 16.5859 51.8924 16.5859H72.6799C73.2321 16.5859 73.6799 17.0337 73.6799 17.5859V20.994C73.6799 21.3743 73.4641 21.7217 73.1233 21.8903L69.5963 23.6351V28.2633C69.5963 28.8156 69.1486 29.2633 68.5963 29.2633C68.044 29.2633 67.5963 28.8156 67.5963 28.2633V23.0141C67.5963 22.6338 67.812 22.2864 68.1529 22.1178L71.6799 20.373V18.5859H52.8924V20.3947L56.1414 22.1323C56.4667 22.3063 56.6698 22.6452 56.6698 23.0141V28.2633C56.6698 28.8156 56.2221 29.2633 55.6698 29.2633C55.1175 29.2633 54.6698 28.8156 54.6698 28.2633V23.6133L51.4208 21.8758C51.0955 21.7018 50.8924 21.3629 50.8924 20.994V17.5859ZM55.6698 46.3518C56.2221 46.3518 56.6698 46.7996 56.6698 47.3518V61.0312C56.6698 61.5835 56.2221 62.0312 55.6698 62.0312C55.1175 62.0312 54.6698 61.5835 54.6698 61.0312V47.3518C54.6698 46.7996 55.1175 46.3518 55.6698 46.3518ZM68.5963 46.3518C69.1486 46.3518 69.5963 46.7996 69.5963 47.3518V61.0312C69.5963 61.5835 69.1486 62.0312 68.5963 62.0312C68.044 62.0312 67.5963 61.5835 67.5963 61.0312V47.3518C67.5963 46.7996 68.044 46.3518 68.5963 46.3518ZM55.6698 79.0183C56.2221 79.0183 56.6698 79.466 56.6698 80.0183V93.64C56.6698 94.1923 56.2221 94.64 55.6698 94.64C55.1176 94.64 54.6698 94.1923 54.6698 93.64V80.0183C54.6698 79.466 55.1176 79.0183 55.6698 79.0183ZM68.5963 79.0183C69.1486 79.0183 69.5963 79.466 69.5963 80.0183V93.64C69.5963 94.1923 69.1486 94.64 68.5963 94.64C68.044 94.64 67.5963 94.1923 67.5963 93.64V80.0183C67.5963 79.466 68.044 79.0183 68.5963 79.0183ZM55.6698 111.728C56.2221 111.728 56.6698 112.176 56.6698 112.728V135.839C56.6698 136.982 56.3868 138.215 55.3513 139.503C54.8414 140.137 54.1596 140.771 53.263 141.414H70.5422C69.862 140.892 69.3196 140.342 68.894 139.772C67.8895 138.426 67.5963 137.047 67.5963 135.839V112.728C67.5963 112.176 68.044 111.728 68.5963 111.728C69.1486 111.728 69.5963 112.176 69.5963 112.728V135.839C69.5963 136.702 69.7974 137.638 70.4969 138.575C71.2074 139.527 72.4907 140.559 74.7965 141.487C75.2408 141.665 75.496 142.134 75.405 142.604C75.3139 143.075 74.9022 143.414 74.4232 143.414H49.579C49.1142 143.414 48.7107 143.094 48.6051 142.642C48.4995 142.189 48.7196 141.723 49.1363 141.518C51.6712 140.266 53.0485 139.175 53.7926 138.249C54.5042 137.364 54.6698 136.591 54.6698 135.839V112.728C54.6698 112.176 55.1176 111.728 55.6698 111.728Z" fill="black"/>
<g opacity="0.1">
<path d="M67.6738 142.414H55.6731H49.5822C54.7758 139.85 55.6731 137.734 55.6731 135.839L55.6731 122.048L55.6731 112.728H68.5996V122.048V135.839C68.5996 137.911 69.5883 140.468 74.4265 142.414H67.6738Z" fill="#BF5002"/>
<path d="M55.6731 80.0183V93.64H68.5996V80.0183H55.6731Z" fill="#BF5002"/>
<path d="M55.6731 47.3518V61.0312H68.5996V47.3518H55.6731Z" fill="#BF5002"/>
<path d="M55.6731 23.0141V28.2633H68.5996V23.0141L72.6832 20.994V17.5859H51.8957V20.994L55.6731 23.0141Z" fill="#BF5002"/>
</g>
<path fill-rule="evenodd" clip-rule="evenodd" d="M114.879 84.4381C115.431 84.4381 115.879 84.8858 115.879 85.4381V100.668C115.879 101.488 115.672 102.378 114.935 103.296C114.744 103.532 114.522 103.767 114.263 104.001H123.78C123.61 103.826 123.457 103.647 123.32 103.463C122.606 102.507 122.397 101.523 122.397 100.668V85.4381C122.397 84.8858 122.845 84.4381 123.397 84.4381C123.949 84.4381 124.397 84.8858 124.397 85.4381V100.668C124.397 101.178 124.514 101.719 124.923 102.267C125.343 102.83 126.129 103.477 127.61 104.073C128.055 104.252 128.31 104.721 128.219 105.191C128.128 105.661 127.716 106.001 127.237 106.001H110.865C110.4 106.001 109.997 105.681 109.891 105.228C109.785 104.776 110.006 104.31 110.422 104.104C112.072 103.29 112.93 102.598 113.376 102.043C113.79 101.528 113.879 101.097 113.879 100.668V85.4381C113.879 84.8858 114.326 84.4381 114.879 84.4381Z" fill="black"/>
<path opacity="0.1" d="M89.9854 84.4632C93.7233 89.7937 101.778 90.1167 105.338 89.612C106.883 90.7415 108.369 91.3686 109.615 91.6925C111.041 91.9516 114.125 92.4698 115.058 92.4698V85.3099C117.087 85.5922 121.535 85.9873 123.09 85.3099V92.4698C123.707 92.7678 125.73 93.185 128.892 92.4698C130.705 92.4419 131.806 91.7764 132.13 91.4471C139.536 92.9152 143.416 89.5129 144.431 87.6283C154.634 87.4402 155.401 78.1039 154.509 73.4592C162.163 66.2712 154.658 54.3787 149.948 49.3309C150.482 39.72 142.68 34.4905 138.712 33.0771C138 27.0197 131.296 25.1689 128.032 25.0007C127.142 22.7797 123.894 18.1962 118.02 17.6309C112.146 17.0655 108.675 21.972 107.674 24.4958C100.91 24.7381 96.6232 30.3176 95.3253 33.0771C87.3154 36.0653 85.9804 43.2735 86.3141 46.5041C83.6741 50.3706 79.845 58.7254 85.649 61.2129H112.596L123.09 70.2863L113.374 79.7391H87.7218C87.9347 80.7118 88.6854 83.0185 89.9854 84.4632Z" fill="#BF5002"/>
<path fill-rule="evenodd" clip-rule="evenodd" d="M101.794 93.4379C101.645 93.0521 101.275 92.7976 100.861 92.7976H33.5323C33.2806 92.7976 33.0382 92.8925 32.8534 93.0633L22.4623 102.67C22.2563 102.861 22.1398 103.129 22.1412 103.41C22.1426 103.69 22.2617 103.957 22.4695 104.146L32.5409 113.275C32.7249 113.442 32.9643 113.535 33.2125 113.535H100.861C101.27 113.535 101.637 113.286 101.789 112.907C101.941 112.528 101.847 112.094 101.552 111.812L92.2651 102.931L101.532 94.5388C101.839 94.2613 101.943 93.8237 101.794 93.4379ZM98.267 94.7976L90.1261 102.17C89.9202 102.356 89.8012 102.62 89.7974 102.897C89.7936 103.175 89.9055 103.442 90.1062 103.634L98.3684 111.535H33.5983L24.6221 103.397L33.9237 94.7976H44.5108V103.405C44.5108 103.957 44.9585 104.405 45.5108 104.405C46.0631 104.405 46.5108 103.957 46.5108 103.405V94.7976H98.267Z" fill="#BF5002"/>
<path fill-rule="evenodd" clip-rule="evenodd" d="M44.5212 60.7748C44.6699 60.389 45.0407 60.1345 45.4542 60.1345H112.783C113.035 60.1345 113.277 60.2294 113.462 60.4003L123.853 70.0073C124.059 70.1977 124.175 70.4659 124.174 70.7465C124.173 71.027 124.054 71.294 123.846 71.4824L113.774 80.6123C113.59 80.7791 113.351 80.8714 113.103 80.8714H45.4542C45.0457 80.8714 44.6782 80.6229 44.5261 80.2438C44.374 79.8646 44.4678 79.4311 44.7631 79.1487L54.0502 70.2678L44.783 61.8758C44.4765 61.5982 44.3724 61.1606 44.5212 60.7748ZM48.0483 62.1345L56.1892 69.5066C56.3951 69.693 56.5141 69.9566 56.5179 70.2343C56.5217 70.5119 56.4098 70.7787 56.2091 70.9706L47.9469 78.8714H112.717L121.693 70.7343L112.392 62.1345H101.804V70.7416C101.804 71.2938 101.357 71.7416 100.804 71.7416C100.252 71.7416 99.8045 71.2938 99.8045 70.7416V62.1345H48.0483Z" fill="#BF5002"/>
<path fill-rule="evenodd" clip-rule="evenodd" d="M80.8609 28.1122C80.7122 27.7264 80.3413 27.4719 79.9278 27.4719H12.599C12.3474 27.4719 12.105 27.5668 11.9202 27.7377L1.52908 37.3447C1.3231 37.5351 1.20657 37.8033 1.20795 38.0839C1.20933 38.3644 1.32847 38.6314 1.53631 38.8198L11.6077 47.9497C11.7916 48.1165 12.031 48.2088 12.2793 48.2088H79.9278C80.3363 48.2088 80.7038 47.9603 80.8559 47.5812C81.008 47.202 80.9142 46.7685 80.6189 46.4861L71.3318 37.6052L80.5991 29.2132C80.9056 28.9356 81.0096 28.498 80.8609 28.1122ZM77.3337 29.4719L69.1928 36.844C68.987 37.0304 68.8679 37.294 68.8642 37.5717C68.8604 37.8493 68.9722 38.1161 69.1729 38.308L77.4352 46.2088H12.6651L3.68885 38.0717L12.9905 29.4719H23.5776V38.079C23.5776 38.6312 24.0253 39.079 24.5776 39.079C25.1299 39.079 25.5776 38.6312 25.5776 38.079V29.4719H77.3337Z" fill="#BF5002"/>
<path fill-rule="evenodd" clip-rule="evenodd" d="M122.633 27.6912C123.173 27.8059 123.518 28.3369 123.403 28.8771C123.33 29.2242 123.169 29.5995 122.991 29.9542C122.805 30.3227 122.568 30.7296 122.303 31.1534C121.771 32.0016 121.094 32.9634 120.4 33.899C119.015 35.7681 117.523 37.5909 116.904 38.2895C116.538 38.7028 115.906 38.7409 115.492 38.3746C115.079 38.0084 115.041 37.3763 115.407 36.963C115.979 36.3173 117.435 34.5416 118.794 32.7082C119.472 31.7926 120.115 30.8773 120.608 30.0911C120.855 29.6978 121.056 29.3482 121.204 29.0546C121.359 28.7471 121.427 28.5546 121.447 28.4617C121.562 27.9214 122.093 27.5765 122.633 27.6912ZM131.864 40.1994C132.356 40.4514 132.55 41.0541 132.298 41.5455C132.141 41.8515 131.975 42.1553 131.805 42.4671C131.027 43.8937 130.158 45.4865 129.628 48.2134C129.405 49.3597 129.032 51.0557 127.905 52.5405C127.571 52.9803 126.943 53.0661 126.503 52.732C126.064 52.398 125.978 51.7706 126.312 51.3308C127.138 50.2432 127.447 48.9524 127.665 47.8315C128.259 44.7781 129.282 42.9082 130.071 41.4672C130.232 41.1734 130.383 40.8975 130.518 40.6329C130.77 40.1415 131.373 39.9474 131.864 40.1994ZM101.354 41.0647C101.902 41.1317 102.292 41.6305 102.225 42.1787C102.059 43.5284 102.807 45.0659 104.101 46.3788C104.928 47.2168 105.876 47.8595 106.74 48.241C106.776 48.0162 106.827 47.7872 106.882 47.5601C107.002 47.0683 107.172 46.489 107.361 45.8455C107.372 45.8078 107.384 45.77 107.395 45.7319C107.6 45.0336 107.832 44.2397 108.069 43.3337C108.208 42.7993 108.755 42.4794 109.289 42.6191C109.823 42.7587 110.143 43.3051 110.004 43.8394C109.759 44.777 109.519 45.5959 109.314 46.2958L109.288 46.3844C109.091 47.0522 108.933 47.5892 108.825 48.0338C108.755 48.3199 108.715 48.5322 108.696 48.688C109.646 48.7926 111.072 48.9845 112.467 49.291C113.335 49.4817 114.221 49.7229 114.982 50.0272C115.708 50.3172 116.473 50.7217 116.942 51.3175C117.283 51.7516 117.208 52.3803 116.774 52.7217C116.34 53.0631 115.711 52.988 115.369 52.5539C115.242 52.3912 114.896 52.1465 114.24 51.8845C113.621 51.6368 112.853 51.4233 112.038 51.2444C110.412 50.8873 108.716 50.6927 107.903 50.6175C106.174 50.4574 104.168 49.2945 102.677 47.783C101.188 46.2721 99.9675 44.1584 100.24 41.9358C100.307 41.3876 100.805 40.9976 101.354 41.0647ZM141.802 54.5628C142.091 54.1482 142.026 53.5737 141.635 53.2357C141.218 52.8744 140.586 52.9201 140.225 53.3378C139.991 53.608 139.892 53.9177 139.844 54.1565C139.795 54.3986 139.781 54.6529 139.777 54.8823C139.773 55.0892 139.777 55.3179 139.781 55.5434C139.781 55.5709 139.782 55.5983 139.782 55.6257C139.787 55.8853 139.79 56.155 139.785 56.4418C139.762 57.5733 139.595 58.9602 138.754 60.4792C138.669 60.6318 138.384 60.9551 137.851 61.4447C137.352 61.9032 136.74 62.4166 136.11 62.9441L136.097 62.9544C135.482 63.4698 134.848 64.0004 134.339 64.4712C134.082 64.7085 133.841 64.9442 133.643 65.1664C133.459 65.3721 133.252 65.6319 133.127 65.9141C132.903 66.4189 133.13 67.0097 133.635 67.2337C134.14 67.4576 134.731 67.2299 134.955 66.7251C134.954 66.7277 134.954 66.727 134.957 66.7229C134.967 66.7063 135.014 66.6342 135.136 66.4977C135.273 66.3438 135.461 66.1572 135.695 65.9405C136.166 65.5063 136.763 65.0055 137.394 64.4774L137.406 64.4671C138.022 63.9509 138.668 63.41 139.204 62.9175C139.71 62.4529 140.239 61.926 140.503 61.4482C140.579 61.3118 140.863 60.989 141.415 60.5293C141.931 60.0993 142.589 59.6252 143.288 59.1814C143.988 58.7374 144.709 58.3361 145.35 58.0447C146.023 57.7389 146.501 57.6039 146.751 57.5923C147.302 57.5667 147.729 57.0986 147.703 56.5469C147.677 55.9953 147.209 55.5688 146.658 55.5945C146.006 55.6248 145.237 55.8994 144.523 56.224C143.777 56.5628 142.973 57.0124 142.217 57.4929C142.038 57.6061 141.861 57.7218 141.687 57.8389C141.751 57.3504 141.776 56.8952 141.784 56.4815C141.791 56.1552 141.786 55.8541 141.782 55.5914C141.781 55.5642 141.781 55.5375 141.781 55.5114C141.776 55.2779 141.773 55.0874 141.776 54.9187C141.78 54.7364 141.79 54.6269 141.802 54.5628ZM141.809 54.532C141.81 54.5292 141.81 54.5279 141.81 54.528C141.811 54.528 141.81 54.5294 141.809 54.532ZM145.039 70.9872C145.53 71.2407 145.722 71.844 145.468 72.3347C144.995 73.2499 143.994 74.2579 142.862 75.2043C141.697 76.1781 140.278 77.1803 138.842 78.0745C137.407 78.9682 135.931 79.7686 134.648 80.3307C134.007 80.6114 133.397 80.8406 132.853 80.9906C132.333 81.1339 131.775 81.2334 131.282 81.1706C130.734 81.1008 130.346 80.6001 130.416 80.0523C130.486 79.5044 130.986 79.1168 131.534 79.1866C131.628 79.1985 131.876 79.1852 132.321 79.0624C132.743 78.9464 133.258 78.7563 133.845 78.4989C135.019 77.9848 136.408 77.234 137.785 76.3767C139.161 75.5198 140.501 74.5712 141.579 73.6699C142.69 72.7412 143.416 71.9497 143.691 71.4167C143.945 70.926 144.548 70.7337 145.039 70.9872Z" fill="black"/>
<path fill-rule="evenodd" clip-rule="evenodd" d="M111.668 20.6661C110.081 22.0179 109.052 23.7334 108.603 24.8646C108.457 25.2335 108.106 25.481 107.71 25.4952C104.608 25.6063 102.053 26.9396 100.098 28.604C98.1336 30.2761 96.8222 32.2439 96.2302 33.5027C96.1189 33.7391 95.9196 33.9226 95.6748 34.014C88.2262 36.7928 87.0053 43.4631 87.3088 46.4013C87.3656 46.9506 86.9663 47.442 86.4169 47.4988C85.8675 47.5555 85.3762 47.1562 85.3194 46.6068C84.9608 43.1358 86.3622 35.5651 94.6015 32.2844C95.3638 30.8061 96.7799 28.802 98.8016 27.081C100.876 25.3148 103.631 23.8131 107.003 23.534C107.634 22.2033 108.755 20.5205 110.371 19.1437C112.258 17.5365 114.854 16.3215 118.116 16.6355C124.019 17.2036 127.453 21.4904 128.702 24.0493C130.423 24.2216 132.748 24.7761 134.825 25.962C137.042 27.2282 139.045 29.2622 139.614 32.3513C141.697 33.1992 144.477 34.8829 146.767 37.4667C149.218 40.2326 151.122 44.0513 150.965 48.9597C153.34 51.5799 156.307 55.7777 157.813 60.2748C159.335 64.8165 159.419 69.8833 155.584 73.8059C155.961 76.2419 155.907 79.6693 154.539 82.6339C153.795 84.2457 152.656 85.7329 150.982 86.8256C149.423 87.8433 147.45 88.4853 145 88.6091C143.473 90.8367 139.363 93.7391 132.391 92.5134C131.695 92.979 130.506 93.4451 128.908 93.4697C128.356 93.4782 127.901 93.0374 127.893 92.4852C127.884 91.9329 128.325 91.4784 128.877 91.4699C130.477 91.4453 131.309 90.8549 131.416 90.7461C131.653 90.5059 131.994 90.4007 132.324 90.4662C139.334 91.8558 142.76 88.6221 143.55 87.1543C143.721 86.8361 144.051 86.6351 144.412 86.6284C146.807 86.5843 148.578 86.0063 149.889 85.1507C151.2 84.2949 152.111 83.1225 152.723 81.796C153.963 79.1086 153.949 75.8425 153.527 73.6478C153.463 73.3112 153.575 72.9649 153.825 72.7303C157.249 69.5142 157.362 65.2247 155.917 60.9101C154.468 56.5845 151.509 52.4698 149.217 50.0131C149.031 49.8139 148.935 49.5474 148.95 49.2754C149.2 44.7788 147.508 41.3184 145.27 38.7931C143.015 36.248 140.22 34.6758 138.377 34.0191C138.018 33.8914 137.763 33.5716 137.719 33.1938C137.411 30.5698 135.819 28.833 133.833 27.6988C131.825 26.552 129.493 26.0773 127.981 25.9993C127.591 25.9793 127.249 25.7346 127.104 25.3726C126.297 23.3576 123.296 19.1433 117.924 18.6263C115.312 18.3749 113.236 19.3304 111.668 20.6661ZM89.4112 83.6445C89.8634 83.3274 90.487 83.4369 90.8041 83.8891C92.4794 86.2781 95.1624 87.599 97.9559 88.2521C100.746 88.9042 103.523 88.8592 105.197 88.6219C105.455 88.5853 105.717 88.6509 105.928 88.8047C107.367 89.857 108.738 90.4312 109.867 90.7247C110.401 90.8636 110.722 91.4096 110.583 91.9441C110.444 92.4786 109.898 92.7993 109.363 92.6603C108.091 92.3296 106.611 91.7152 105.077 90.6535C103.179 90.8722 100.354 90.8665 97.5006 90.1995C94.4424 89.4846 91.2292 87.9788 89.1666 85.0374C88.8495 84.5852 88.959 83.9616 89.4112 83.6445Z" fill="black"/>
<path d="M63.205 33.9044C63.205 34.5711 62.6645 35.1116 61.9978 35.1116C61.3311 35.1116 60.7907 34.5711 60.7907 33.9044C60.7907 33.2377 61.3311 32.6973 61.9978 32.6973C62.6645 32.6973 63.205 33.2377 63.205 33.9044Z" fill="#BF5002"/>
<path d="M63.2115 41.7761C63.2115 42.4428 62.6711 42.9833 62.0044 42.9833C61.3377 42.9833 60.7972 42.4428 60.7972 41.7761C60.7972 41.1094 61.3377 40.569 62.0044 40.569C62.6711 40.569 63.2115 41.1094 63.2115 41.7761Z" fill="#BF5002"/>
<path d="M63.2115 66.5673C63.2115 67.234 62.6711 67.7744 62.0044 67.7744C61.3377 67.7744 60.7972 67.234 60.7972 66.5673C60.7972 65.9006 61.3377 65.3601 62.0044 65.3601C62.6711 65.3601 63.2115 65.9006 63.2115 66.5673Z" fill="#BF5002"/>
<path d="M63.2115 99.2295C63.2115 99.8962 62.6711 100.437 62.0044 100.437C61.3377 100.437 60.7972 99.8962 60.7972 99.2295C60.7972 98.5628 61.3377 98.0223 62.0044 98.0223C62.6711 98.0223 63.2115 98.5628 63.2115 99.2295Z" fill="#BF5002"/>
<path d="M63.2115 74.4391C63.2115 75.1058 62.6711 75.6463 62.0044 75.6463C61.3377 75.6463 60.7972 75.1058 60.7972 74.4391C60.7972 73.7724 61.3377 73.2319 62.0044 73.2319C62.6711 73.2319 63.2115 73.7724 63.2115 74.4391Z" fill="#BF5002"/>
<path d="M63.2115 107.101C63.2115 107.768 62.6711 108.308 62.0044 108.308C61.3377 108.308 60.7972 107.768 60.7972 107.101C60.7972 106.434 61.3377 105.894 62.0044 105.894C62.6711 105.894 63.2115 106.434 63.2115 107.101Z" fill="#BF5002"/>
</svg>
