<svg width="76" height="33" fill="none" xmlns="http://www.w3.org/2000/svg"><path fill-rule="evenodd" clip-rule="evenodd" d="M72.276 10.974c0-3.146-1.292-3.76-3.344-3.76-1.9 0-2.508.92-2.584 2.763-.076 5.295 9.728 2.149 9.576 11.511-.076 3.991-2.736 6.677-7.296 6.677-5.472 0-7.752-3.453-7.296-8.212h3.648c-.304 3.607 1.672 4.528 3.648 4.528 1.672 0 2.964-.614 2.964-2.84.152-5.448-9.728-2.609-9.576-11.664.076-4.452 3.268-6.447 7.068-6.447 6.232 0 6.916 4.681 6.84 7.521h-3.648v-.077ZM54.72 27.321V4.22h4.408v23.253H54.72v-.153Zm-3.648-11.896v9.977h-.304c-1.52 1.535-4.104 2.763-6.308 2.763-3.724 0-8.132-1.765-8.132-8.212v-7.52c0-5.91 3.344-8.98 7.98-8.98 5.016 0 6.308 3.224 6.688 5.91v2.302h-3.648v-1.074c-.228-2.61-1.368-3.377-3.192-3.377-1.976 0-3.42 1.535-3.42 5.525v6.83c.076 6.14 5.244 4.989 6.612 3.53v-3.913H43.7v-3.76h7.372Z" fill="#414142"/><path d="M31.616 16.5c0 9.133-7.068 16.5-15.808 16.5S0 25.633 0 16.5 7.068 0 15.808 0s15.808 7.367 15.808 16.5Z" fill="#77BB42"/><path d="M29.868 10.974c0-4.144-2.812-7.367-7.448-7.367-5.624 0-8.436 4.374-7.448 10.053h3.496c-.304-4.911 1.596-6.446 3.496-6.446 2.432 0 3.496 2.61 3.496 4.144 0 3.99-4.636 8.058-11.4 14.198v2.762h15.808v-3.683H20.52c3.42-2.916 9.348-7.675 9.348-13.66Z" fill="#fff"/></svg>