<svg width="144" height="24" fill="none" xmlns="http://www.w3.org/2000/svg"><path d="M8.91 13.097c0-1.507-.953-2.439-2.425-2.439H4.422c-.662.093-.962.495-.962 1.272v3.375l3.025.004c1.496 0 2.424-.664 2.425-2.212ZM3.46 7.652h2.722c1.53 0 2.075-.973 2.075-1.989 0-1.334-.796-2.131-2.123-2.131H4.586c-.774.05-1.126.449-1.126 1.284v2.836Zm9.006 5.691c0 3.203-2.445 5.44-6.23 5.44H0v-16C.011 1.763 1.07.734 2.08.696h4.078c3.406 0 5.606 1.717 5.606 4.562 0 1.863-.93 2.94-1.485 3.418l-.478.41.547.309c1.327.748 2.118 2.224 2.118 3.948Zm72.183-1.529c0-2.911-1.572-3.25-2.749-3.25-2.377 0-2.56 2.393-2.56 3.127 0 1.667.72 3.446 2.754 3.446 1.166 0 2.555-.577 2.555-3.323Zm3.377-6.25-.012 11.997c0 4.576-3.417 6.201-6.583 6.201-1.537 0-3.234-.415-4.542-1.111l-.258-.137.418-1.068.291-.736c.32-.793.783-.99 1.571-.751.606.22 1.509.463 2.503.463 2.04 0 3.166-.965 3.166-2.711v-.365l-.291.215c-.738.565-1.675.842-2.858.842-3.462 0-5.88-2.72-5.88-6.614 0-3.897 2.338-6.516 5.812-6.516 1.748 0 2.823.618 3.423 1.139l.171.15.103-.2c.269-.516.811-.797 1.52-.797h1.446ZM38.69 12.106c0-2.12-1.312-3.604-3.183-3.604-1.863 0-3.16 1.484-3.16 3.604 0 2.122 1.298 3.607 3.16 3.607 1.901 0 3.183-1.45 3.183-3.607Zm3.646 0c0 3.926-2.878 6.775-6.829 6.775-3.945 0-6.805-2.85-6.805-6.775 0-3.923 2.86-6.773 6.805-6.773 3.951 0 6.829 2.85 6.829 6.773Zm17.918 6.568V7.589c0-1.337-.634-1.986-1.954-1.986l-1.463-.005.012 10.116h-.012l.012 3.069h3.405v-.11Zm9.749-13.371c-1.903 0-3.114.85-3.794 1.565l-.229.232-.08-.314c-.2-.768-.874-1.192-1.886-1.192H62.38l.011 13.083h3.452v-6.03c0-.59.08-1.1.234-1.568.412-1.413 1.349-2.29 2.794-2.29 1.16 0 1.829.614 1.829 2.202v5.697c0 1.355.84 1.989 2.189 1.989h1.274v-8.241c0-3.306-1.12-5.133-4.16-5.133Zm-17.754 7.142a3.198 3.198 0 0 0-.515-.729l-.12-.126.127-.121a5.4 5.4 0 0 0 .543-.68l3.478-5.19H51.54l-2.613 4.059c-.148.217-.447.327-.894.327h-.902V2.311C47.131.777 46.081 0 45.051 0h-1.386l.004 18.68h3.462v-5.433h.658c.425 0 .716.05.85.282l2.063 3.91c.576 1.061 1.151 1.242 2.232 1.242h2.867l-2.135-3.545-1.417-2.692Zm-28.45-.339c0-2.12-1.309-3.604-3.182-3.604-1.863 0-3.158 1.484-3.158 3.604 0 2.122 1.295 3.607 3.158 3.607 1.9 0 3.182-1.45 3.182-3.607Zm3.646 0c0 3.926-2.872 6.775-6.828 6.775-3.942 0-6.802-2.85-6.802-6.775 0-3.923 2.86-6.773 6.802-6.773 3.956 0 6.827 2.85 6.827 6.773Zm28.992-9.928A2.17 2.17 0 0 1 58.597 0c1.194 0 2.165.974 2.165 2.177 0 1.2-.971 2.176-2.165 2.176a2.171 2.171 0 0 1-2.16-2.176Z" fill="#003580"/><path d="M106.903 14.324c-.012.012-1.543 1.627-3.549 1.627-1.834 0-3.685-1.128-3.685-3.644 0-2.176 1.434-3.695 3.491-3.695.669 0 1.423.24 1.543.644l.017.068c.274.915 1.103.962 1.263.962l1.948.002V8.583c0-2.249-2.851-3.065-4.771-3.065-4.103 0-7.08 2.867-7.08 6.816 0 3.945 2.943 6.81 7.006 6.81 3.52 0 5.434-2.325 5.451-2.35l.103-.125-1.537-2.564-.2.219Zm32.771-8.806c-1.543 0-2.96.726-3.914 1.939l-.269.343-.211-.384c-.691-1.258-1.874-1.898-3.526-1.898-1.725 0-2.88.968-3.423 1.544l-.348.38-.137-.503c-.195-.724-.84-1.123-1.812-1.123h-1.428l-.012 13.032h3.412v-5.753c0-.503.063-1.002.188-1.525.337-1.39 1.269-2.883 2.835-2.735.965.094 1.434.843 1.434 2.288v7.725h3.217v-5.753c0-.63.063-1.1.2-1.574.291-1.326 1.474-2.687 2.989-2.687 1.091 0 1.662.62 1.662 2.29v5.818c0 1.317.772 1.906 2.08 1.906h1.383l.006-8.32c0-3.324-1.457-5.01-4.326-5.01Zm-23.297.22c-3.943 0-7.034 2.85-7.034 6.775 0 3.924 3.091 6.775 7.034 6.775 3.954 0 6.829-2.851 6.829-6.775 0-3.924-2.875-6.774-6.829-6.774ZM90.463 16.827c0-1.203.966-2.177 2.16-2.177 1.194 0 2.166.974 2.166 2.177a2.173 2.173 0 0 1-2.166 2.176 2.168 2.168 0 0 1-2.16-2.176Zm25.914-.707c-1.863 0-3.16-1.484-3.16-3.606 0-2.121 1.297-3.605 3.16-3.605 1.869 0 3.183 1.484 3.183 3.605 0 2.156-1.28 3.606-3.183 3.606Z" fill="#0896FF"/></svg>