<svg width="29" height="41" fill="none" xmlns="http://www.w3.org/2000/svg"><path d="M19.136.656A14.201 14.201 0 0 0 14.865 0C10.52 0 6.633 1.96 4.033 5.048l6.68 5.616L19.136.656Z" fill="#1A73E8"/><path d="M4.033 5.048A14.091 14.091 0 0 0 .72 14.135c0 2.656.528 4.816 1.4 6.744l8.592-10.216-6.68-5.615Z" fill="#EA4335"/><path d="M14.864 8.735a5.41 5.41 0 0 1 4.128 8.904l8.416-10.007a14.147 14.147 0 0 0-8.28-6.968L10.721 10.67a5.392 5.392 0 0 1 4.143-1.936Z" fill="#4285F4"/><path d="M14.864 19.551a5.411 5.411 0 0 1-5.407-5.408 5.36 5.36 0 0 1 1.264-3.472l-8.6 10.216c1.472 3.256 3.912 5.872 6.424 9.168l10.447-12.416a5.401 5.401 0 0 1-4.128 1.912Z" fill="#FBBC04"/><path d="M18.784 33.438C23.504 26.063 29 22.711 29 14.135c0-2.352-.576-4.568-1.592-6.52L8.553 30.055c.8 1.047 1.608 2.16 2.392 3.391 2.864 4.432 2.072 7.088 3.92 7.088 1.847 0 1.056-2.664 3.92-7.096Z" fill="#34A853"/></svg>