<svg width="123" height="31" fill="none" xmlns="http://www.w3.org/2000/svg"><path d="M0 15c0 8.3 6.7 15 15 15s15-6.7 15-15S23.3 0 15 0 0 6.7 0 15Zm5.2 0c0-5.2 4-9.4 9.1-9.8v5.2c-2.2.3-3.9 2.2-3.9 4.5 0 2.5 2 4.6 4.6 4.6 2.6 0 4.6-2 4.6-4.6 0-2.3-1.7-4.2-3.9-4.5V5.2c5.1.3 9.1 4.6 9.1 9.8 0 5.4-4.4 9.8-9.8 9.8S5.2 20.4 5.2 15ZM13 2.6c0-1.1.9-2 2-2s2 .9 2 2-.9 2-2 2-2-.9-2-2ZM40 18.3h-4.3c-.7 0-1.1-.4-1.1-1.1v-4.3c0-.8.4-1.1 1.1-1.1H40c.7 0 1.1.4 1.1 1.1v4.3c0 .7-.4 1.1-1.1 1.1Zm3.7-5.6c0-2.4-1.2-3.6-3.5-3.6h-4.7c-2.4 0-3.5 1.2-3.5 3.6v4.5c0 2.4 1.2 3.6 3.5 3.6h4.7c2.3 0 3.5-1.2 3.5-3.6v-4.5ZM56.7 9.1H45v2.6h4.6v9.2h2.6v-9.2h4.5V9.1ZM69.8 12.7c0-2.3-1.1-3.5-3.3-3.5H58v2.6h8c.8 0 1.2.3 1.2 1s-.4 1-1.2 1h-3.4v2.6H66c.8 0 1.2.3 1.2 1s-.4 1-1.2 1h-8V21h8c2.5 0 3.8-1 3.8-3.1 0-1-.2-2-.7-2.7.5-1 .7-1.8.7-2.5ZM79.1 18.3h-4.3c-.7 0-1.1-.4-1.1-1.1v-4.3c0-.8.4-1.1 1.1-1.1h4.3c.7 0 1.1.4 1.1 1.1v4.3c0 .7-.4 1.1-1.1 1.1Zm3.7-5.6c0-2.4-1.2-3.6-3.5-3.6h-4.7c-2.4 0-3.5 1.2-3.5 3.6v4.5c0 2.4 1.2 3.6 3.5 3.6h4.7c2.3 0 3.5-1.2 3.5-3.6v-4.5ZM93.3 17.3c0-.7-.4-1-1.1-1h-5.4v2h5.4c.7 0 1.1-.4 1.1-1Zm0-4.6c0-.7-.4-1-1.1-1h-5.4v2h5.4c.7 0 1.1-.3 1.1-1Zm2.6 4.6c0 2.4-1.2 3.5-3.5 3.5h-8.2V9.1h8.2c2.3 0 3.5 1.2 3.5 3.5 0 1.1-.3 1.9-.7 2.3.4.6.7 1.4.7 2.4ZM108.9 20.9h-2.6v-8.2l-6.5 8.2h-2.6V9.1h2.6v8.2l6.5-8.2h2.6v11.8ZM117.5 15l4.7-5.9h-3l-3.7 4.6h-2.7V9.1h-2.6v11.8h2.6v-4.6h2.7l3.7 4.6h3l-4.7-5.9Z" fill="#B74746"/></svg>