<svg width="35" height="42" fill="none" xmlns="http://www.w3.org/2000/svg"><path fill-rule="evenodd" clip-rule="evenodd" d="M17.23 0a17.55 17.55 0 0 0-9.57 2.833 16.903 16.903 0 0 0-6.344 7.537 16.414 16.414 0 0 0-.984 9.704 16.678 16.678 0 0 0 4.708 8.602c3.122 3.044 10.467 7.446 10.902 12.069 0 .333.136.652.377.887.242.236.57.368.91.368.342 0 .67-.132.911-.368a1.24 1.24 0 0 0 .378-.887c.435-4.626 7.775-9.018 10.891-12.054a16.679 16.679 0 0 0 4.721-8.603c.666-3.26.326-6.639-.978-9.71a16.903 16.903 0 0 0-6.346-7.544A17.551 17.551 0 0 0 17.23 0Z" fill="#F43"/><path fill-rule="evenodd" clip-rule="evenodd" d="M17.23 22.695a6.158 6.158 0 0 0 3.359-.995 5.93 5.93 0 0 0 2.226-2.647 5.76 5.76 0 0 0 .343-3.406 5.852 5.852 0 0 0-1.656-3.018 6.097 6.097 0 0 0-3.096-1.613 6.192 6.192 0 0 0-3.494.336 6.016 6.016 0 0 0-2.713 2.171 5.768 5.768 0 0 0-.559 5.533c.304.716.75 1.366 1.311 1.913a6.059 6.059 0 0 0 1.963 1.278c.734.296 1.521.448 2.316.448Z" fill="#BF3326"/></svg>