<svg aria-hidden="true" style="position: absolute; width: 0; height: 0; overflow: hidden;" version="1.1" xmlns="http://www.w3.org/2000/svg" xmlns:xlink="http://www.w3.org/1999/xlink">
<defs>
<symbol id="ancor-icon" viewBox="0 0 29 32">
<path d="M18.531 4.231c0 0 0 0 0 0 0 1.755-1.068 3.261-2.59 3.902l-0.028 0.010c-0.12 0.054-0.202 0.172-0.202 0.31 0 0.002 0 0.005 0 0.007v-0 1.411c0 0.778 0.631 1.411 1.411 1.411h2.822c0.759 0.025 1.366 0.647 1.366 1.41s-0.606 1.385-1.363 1.41l-0.002 0h-2.822c-0.779 0-1.411 0.632-1.411 1.411v0 7.711c0 0.97 0.441 1.785 1.059 1.917 0.537 0.116 1.773-0.303 3.087-0.748l0.593-0.199c1.216-0.406 2.886-1.712 3.569-2.313l-2.204-1.743 6.787-2.004v6.874l-2.292-1.52c-0.404 0.676-1.604 2.34-3.172 3.593-1.489 1.187-2.903 1.613-4.125 1.981-0.385 0.116-0.753 0.227-1.098 0.353-0.989 0.365-1.862 1.289-2.432 1.889-0.255 0.269-0.448 0.474-0.564 0.535-0.3 0.159-0.537 0.169-0.617 0.154-0.081 0.015-0.317 0.004-0.617-0.154-0.116-0.061-0.31-0.266-0.566-0.535-0.567-0.601-1.441-1.524-2.432-1.889-0.343-0.127-0.711-0.237-1.098-0.353-1.222-0.368-2.633-0.794-4.124-1.983-1.569-1.251-2.769-2.915-3.172-3.591l-2.292 1.52v-6.874l6.787 2.004-2.204 1.741c0.684 0.602 2.353 1.908 3.569 2.313l0.593 0.201c1.313 0.445 2.55 0.863 3.087 0.748 0.617-0.131 1.057-0.945 1.057-1.914v-7.715c0-0.779-0.632-1.411-1.411-1.411v0h-2.817c-0.76-0.025-1.366-0.647-1.366-1.41s0.606-1.385 1.363-1.41l0.002-0h2.82c0.779 0 1.411-0.632 1.411-1.411v0-1.409c0-0.002 0-0.005 0-0.007 0-0.138-0.082-0.256-0.2-0.309l-0.002-0.001c-1.552-0.651-2.623-2.158-2.623-3.915 0-2.338 1.895-4.233 4.233-4.233s4.233 1.895 4.233 4.233c0 0.001 0 0.001 0 0.002v-0zM14.301 5.642c0.779 0 1.411-0.632 1.411-1.411s-0.632-1.411-1.411-1.411v0c-0.779 0-1.411 0.632-1.411 1.411s0.632 1.411 1.411 1.411v0z"></path>
</symbol>
<symbol id="arrow-left-icon" viewBox="0 0 32 32">
<path d="M15.057 7.609c-0.232-0.24-0.374-0.566-0.374-0.926 0-0.736 0.597-1.333 1.333-1.333 0.36 0 0.687 0.143 0.927 0.375l9.333 9.333c0.241 0.241 0.39 0.575 0.39 0.943s-0.149 0.701-0.39 0.943l-9.333 9.333c-0.24 0.232-0.566 0.374-0.926 0.374-0.736 0-1.333-0.597-1.333-1.333 0-0.36 0.143-0.687 0.375-0.927l7.057-7.057h-15.448c-0.736 0-1.333-0.597-1.333-1.333s0.597-1.333 1.333-1.333v0h15.448l-7.057-7.057z"></path>
</symbol>
<symbol id="arrow-rotate360-icon" viewBox="0 0 32 32">
<path d="M16 8c-7.6 0-13.333 2.867-13.333 6.667 0 3.267 4.253 5.84 10.28 6.507l-0.56 0.547c-0.246 0.242-0.398 0.578-0.398 0.95 0 0.555 0.34 1.031 0.822 1.232l0.009 0.003c0.152 0.065 0.328 0.103 0.513 0.103 0.37 0 0.705-0.151 0.947-0.395l2.667-2.667c0.118-0.123 0.213-0.269 0.277-0.431l0.003-0.009c0.063-0.15 0.1-0.324 0.1-0.507s-0.037-0.357-0.103-0.515l0.003 0.009c-0.067-0.171-0.162-0.317-0.28-0.44l0 0-2.667-2.667c-0.242-0.242-0.577-0.392-0.947-0.392-0.739 0-1.339 0.599-1.339 1.339 0 0.37 0.15 0.704 0.392 0.947v0l0.16 0.147c-4.547-0.64-7.213-2.427-7.213-3.76 0-1.627 4.16-4 10.667-4s10.667 2.373 10.667 4c0 1.107-1.933 2.667-5.613 3.467-0.613 0.128-1.067 0.665-1.067 1.307 0 0.737 0.597 1.334 1.334 1.334 0.094 0 0.186-0.010 0.275-0.028l-0.009 0.002c4.867-1.067 7.747-3.333 7.747-6.080 0-3.8-5.733-6.667-13.333-6.667z"></path>
</symbol>
<symbol id="arrows-up-down-icon" viewBox="0 0 32 32">
<path d="M21.72 19.053l-5.72 5.733-5.72-5.733c-0.242-0.242-0.577-0.392-0.947-0.392-0.739 0-1.339 0.599-1.339 1.339 0 0.37 0.15 0.704 0.392 0.947l6.667 6.667c0.242 0.243 0.577 0.393 0.947 0.393s0.705-0.15 0.947-0.393l6.667-6.667c0.242-0.242 0.392-0.577 0.392-0.947 0-0.739-0.599-1.339-1.339-1.339-0.37 0-0.704 0.15-0.947 0.392v0zM10.28 12.947l5.72-5.733 5.72 5.733c0.242 0.246 0.578 0.398 0.95 0.398 0.555 0 1.031-0.34 1.232-0.822l0.003-0.009c0.065-0.152 0.103-0.328 0.103-0.513 0-0.37-0.151-0.705-0.395-0.947l-6.667-6.667c-0.242-0.244-0.577-0.394-0.947-0.394s-0.705 0.151-0.947 0.394l-6.667 6.667c-0.242 0.242-0.392 0.577-0.392 0.947 0 0.739 0.599 1.339 1.339 1.339 0.37 0 0.704-0.15 0.947-0.392v0z"></path>
</symbol>
<symbol id="burger-icon" viewBox="0 0 32 32">
<path stroke-linejoin="round" stroke-linecap="round" stroke-miterlimit="4" stroke-width="2.6667" d="M4 24h24M4 16h18.063M4 8h12"></path>
</symbol>
<symbol id="calendar-icon" viewBox="0 0 32 32">
<path d="M6.667 6.667c-0.736 0-1.333 0.597-1.333 1.333v0 18.667c0 0.736 0.597 1.333 1.333 1.333v0h18.667c0.736 0 1.333-0.597 1.333-1.333v0-18.667c0-0.736-0.597-1.333-1.333-1.333v0h-18.667zM2.667 8c0-2.209 1.791-4 4-4v0h18.667c2.209 0 4 1.791 4 4v0 18.667c0 2.209-1.791 4-4 4v0h-18.667c-2.209 0-4-1.791-4-4v0-18.667z"></path>
<path d="M21.333 1.333c0.736 0 1.333 0.597 1.333 1.333v0 5.333c0 0.736-0.597 1.333-1.333 1.333s-1.333-0.597-1.333-1.333v0-5.333c0-0.736 0.597-1.333 1.333-1.333v0zM10.667 1.333c0.736 0 1.333 0.597 1.333 1.333v0 5.333c0 0.736-0.597 1.333-1.333 1.333s-1.333-0.597-1.333-1.333v0-5.333c0-0.736 0.597-1.333 1.333-1.333v0zM2.667 13.333c0-0.736 0.597-1.333 1.333-1.333v0h24c0.736 0 1.333 0.597 1.333 1.333s-0.597 1.333-1.333 1.333v0h-24c-0.736 0-1.333-0.597-1.333-1.333v0z"></path>
</symbol>
<symbol id="cart-icon" viewBox="0 0 32 32">
<path stroke-linejoin="round" stroke-linecap="round" stroke-miterlimit="4" stroke-width="2" d="M24 23h-15.438c-0 0-0 0-0 0-0.489 0-0.896-0.351-0.983-0.815l-0.001-0.006-3.338-18.359c-0.088-0.47-0.495-0.82-0.984-0.82-0 0-0 0-0 0h-2.256"></path>
<path stroke-linejoin="round" stroke-linecap="round" stroke-miterlimit="4" stroke-width="2" d="M9 28c1.381 0 2.5-1.119 2.5-2.5s-1.119-2.5-2.5-2.5v0c-1.381 0-2.5 1.119-2.5 2.5s1.119 2.5 2.5 2.5v0zM24 28c1.381 0 2.5-1.119 2.5-2.5s-1.119-2.5-2.5-2.5v0c-1.381 0-2.5 1.119-2.5 2.5s1.119 2.5 2.5 2.5v0zM5 8h21.802c0 0 0 0 0 0 0.552 0 1 0.448 1 1 0 0.063-0.006 0.125-0.017 0.185l0.001-0.006-1.637 9c-0.088 0.47-0.495 0.821-0.984 0.821-0 0-0 0-0 0h-18.165"></path>
</symbol>
<symbol id="copy-icon" viewBox="0 0 32 32">
<path d="M17.333 13.333c0.736 0 1.334 0.597 1.334 1.333v12c0 0.736-0.597 1.334-1.334 1.334h-12c-0.736 0-1.333-0.597-1.333-1.333 0-0.001 0-0.001 0-0.002v0-12c0-0.736 0.597-1.333 1.333-1.333h12zM21.333 14.666c0-2.209-1.791-4-4-4v0h-12c-2.209 0-4 1.791-4 4v0 12c0 2.209 1.791 4 4 4v0h12c2.209 0 4-1.791 4-4v0-12z"></path>
<path d="M26.667 4c0.736 0 1.333 0.597 1.333 1.333v0 12c0 0 0 0.001 0 0.002 0 0.736-0.597 1.333-1.333 1.333h-1.334c-0.737 0-1.334 0.597-1.334 1.334s0.597 1.334 1.334 1.334v0h1.334c2.209 0 4-1.791 4-4v0-12c0-2.209-1.791-4-4-4v0h-12c-2.209 0-4 1.791-4 4v0 1.333c0 0.736 0.597 1.333 1.333 1.333s1.333-0.597 1.333-1.333v0-1.333c0-0 0-0.001 0-0.002 0-0.736 0.597-1.333 1.333-1.333 0.001 0 0.001 0 0.002 0h12z"></path>
</symbol>
<symbol id="crost-icon" viewBox="0 0 32 32">
<path stroke-linejoin="bevel" stroke-linecap="round" stroke-miterlimit="4" stroke-width="2.6667" d="M7.219 7.264l18.115 18.113M25.333 7.219l-18.115 18.115"></path>
</symbol>
<symbol id="facebook-logo" viewBox="0 0 18 32">
<path d="M11.067 30.892v-13.726h4.608l0.69-5.349h-5.298v-3.415c0-1.548 0.432-2.604 2.651-2.604l2.834-0.002v-4.784c-1.201-0.135-2.593-0.212-4.003-0.212-0.044 0-0.089 0-0.133 0l0.007-0c-4.084 0-6.88 2.494-6.88 7.072v3.947h-4.617v5.348h4.62v13.726h5.524z"></path>
</symbol>
<symbol id="half-star-icon" viewBox="0 0 32 32">
<path fill="none" stroke-linejoin="miter" stroke-linecap="butt" stroke-miterlimit="4" stroke-width="1.3333" d="M16 2.158l3.108 9.564h10.057l-8.133 5.911 0.149 0.462 2.958 9.102-8.137-5.911-8.139 5.913 3.108-9.564-8.135-5.911h10.057l0.149-0.462 2.958-9.102z"></path>
<path d="M6.596 28.944l9.404-6.832v-22.112l-3.591 11.056h-11.627l9.404 6.832-3.591 11.058z"></path>
</symbol>
<symbol id="instagram-logo" viewBox="0 0 32 32">
<path d="M15.932 2.871c4.254 0 4.759 0.017 6.438 0.094 1.555 0.072 2.396 0.329 2.959 0.55 0.744 0.288 1.274 0.632 1.832 1.192 0.557 0.557 0.904 1.088 1.192 1.832 0.218 0.561 0.478 1.404 0.548 2.957 0.077 1.681 0.094 2.184 0.094 6.438s-0.017 4.759-0.094 6.438c-0.070 1.555-0.329 2.396-0.548 2.959-0.27 0.718-0.676 1.33-1.19 1.83l-0.001 0.001c-0.557 0.557-1.088 0.904-1.832 1.192-0.563 0.218-1.404 0.478-2.959 0.548-1.679 0.077-2.184 0.094-6.438 0.094s-4.757-0.017-6.438-0.094c-1.553-0.070-2.396-0.329-2.957-0.548-0.718-0.27-1.33-0.676-1.83-1.19l-0.001-0.001c-0.516-0.501-0.923-1.113-1.18-1.798l-0.011-0.034c-0.22-0.563-0.478-1.404-0.55-2.959-0.077-1.679-0.094-2.184-0.094-6.438s0.017-4.757 0.094-6.438c0.072-1.553 0.329-2.396 0.55-2.957 0.29-0.744 0.632-1.274 1.192-1.832 0.557-0.559 1.088-0.904 1.832-1.192 0.561-0.22 1.404-0.478 2.957-0.55 1.681-0.077 2.184-0.094 6.438-0.094zM15.932 0c-4.326 0-4.87 0.019-6.569 0.094-1.694 0.077-2.852 0.348-3.868 0.74-1.105 0.423-2.047 1.048-2.822 1.838l-0.001 0.001c-0.885 0.885-1.431 1.775-1.837 2.824-0.392 1.013-0.663 2.17-0.738 3.866-0.077 1.7-0.096 2.24-0.096 6.569 0 4.326 0.019 4.87 0.094 6.569 0.077 1.696 0.348 2.854 0.74 3.868 0.408 1.047 0.952 1.937 1.839 2.824 0.885 0.885 1.775 1.431 2.824 1.837 1.013 0.393 2.17 0.663 3.866 0.74 1.7 0.075 2.24 0.094 6.569 0.094s4.87-0.019 6.569-0.094c1.696-0.077 2.854-0.346 3.868-0.74 1.105-0.423 2.047-1.048 2.822-1.838l0.001-0.001c0.885-0.885 1.431-1.775 1.837-2.824 0.393-1.011 0.663-2.17 0.74-3.866 0.075-1.7 0.094-2.24 0.094-6.569 0-4.326-0.019-4.87-0.094-6.569-0.077-1.694-0.346-2.852-0.74-3.868-0.423-1.105-1.048-2.047-1.838-2.822l-0.001-0.001c-0.885-0.885-1.775-1.431-2.824-1.837-1.011-0.392-2.17-0.663-3.866-0.738-1.7-0.077-2.244-0.096-6.569-0.096z"></path>
<path d="M15.932 7.752c-0.037-0.001-0.080-0.001-0.124-0.001-4.519 0-8.183 3.663-8.183 8.183s3.663 8.183 8.183 8.183c0.044 0 0.087-0 0.131-0.001l-0.007 0c4.465-0.070 8.058-3.706 8.058-8.182s-3.593-8.112-8.052-8.182l-0.007-0zM15.932 21.242c-2.933 0-5.311-2.378-5.311-5.311s2.378-5.311 5.311-5.311v0c2.933 0 5.311 2.378 5.311 5.311s-2.378 5.311-5.311 5.311v0zM24.437 9.336c1.055 0 1.911-0.855 1.911-1.911s-0.855-1.911-1.911-1.911v0c-1.055 0-1.911 0.855-1.911 1.911s0.855 1.911 1.911 1.911v0z"></path>
</symbol>
<symbol id="site-logo" viewBox="0 0 150 32">
<path stroke="none" d="M12.728 30.4h-4.244l-4.265-6.643v6.643h-3.799v-14.855h3.798v6.239l4.054-6.24h4.244l-4.711 7.216 4.923 7.64zM17.606 26.835h5.751v3.565h-9.549v-14.855h9.443v3.544h-5.645v2.059h5.114v3.501h-5.114v2.185zM40.316 15.545v14.855h-3.778v-8l-3.608 5.962h-0.382l-3.587-5.941v7.979h-3.798v-14.855h3.798l3.778 6.345 3.799-6.345h3.778zM54.135 15.545v14.855h-3.799v-11.183h-3.862v11.183h-3.799v-14.855h11.459zM64.669 30.4v-7.469l-5.241 7.469h-2.95v-14.855h3.798v7.469l5.242-7.469h2.929v14.855h-3.778zM78.776 15.545h3.778v14.855h-3.778v-5.709h-4.18v5.709h-3.799v-14.855h3.798v5.496h4.181v-5.496zM93.696 15.545v3.672h-4.987v11.183h-3.799v-14.855h8.786zM1.496 8.603h3.759v1.334h-5.154v-8.488h5.093v1.334h-3.699v2.206h3.395v1.322h-3.395v2.292zM11.528 5.534c0.371 0.194 0.663 0.461 0.873 0.8 0.211 0.34 0.315 0.733 0.315 1.177 0 0.695-0.247 1.273-0.739 1.734s-1.096 0.691-1.807 0.691h-3.638v-8.488h3.371c0.696 0 1.282 0.227 1.758 0.68 0.485 0.445 0.728 1.002 0.728 1.673 0 0.736-0.286 1.314-0.861 1.735zM9.902 2.758h-1.976v2.232h1.976c0.307 0 0.566-0.105 0.776-0.316 0.211-0.219 0.315-0.485 0.315-0.8 0-0.009 0-0.019 0-0.030 0-0.296-0.121-0.565-0.315-0.758l-0-0c-0.19-0.202-0.458-0.329-0.757-0.329-0.007 0-0.014 0-0.021 0l0.001-0zM10.169 8.627c0.323 0 0.594-0.114 0.813-0.34 0.226-0.234 0.339-0.517 0.339-0.849 0-0.008 0-0.017 0-0.026 0-0.317-0.13-0.604-0.339-0.81l-0-0c-0.196-0.217-0.478-0.352-0.791-0.352-0.007 0-0.015 0-0.022 0l0.001-0h-2.243v2.377h2.243zM17.061 1.448c0.8 0 1.468 0.266 2.001 0.8 0.541 0.534 0.813 1.196 0.813 1.989 0 0.783-0.271 1.447-0.813 1.988-0.533 0.534-1.2 0.8-2.001 0.8h-1.734v2.911h-1.395v-8.488h3.128zM17.061 5.717c0.413 0 0.752-0.138 1.019-0.413 0.267-0.283 0.4-0.639 0.4-1.067 0-0.429-0.133-0.781-0.4-1.055-0.267-0.283-0.606-0.424-1.019-0.424h-1.734v2.959h1.735zM28.108 8.821c-0.849 0.849-1.887 1.273-3.116 1.273s-2.272-0.424-3.129-1.273c-0.849-0.857-1.273-1.9-1.273-3.128s0.424-2.268 1.273-3.117c0.857-0.857 1.9-1.286 3.129-1.286s2.267 0.429 3.116 1.286c0.857 0.849 1.286 1.887 1.286 3.116s-0.429 2.272-1.286 3.129zM22.845 7.875c0.583 0.573 1.299 0.861 2.147 0.861s1.56-0.286 2.134-0.861c0.582-0.582 0.873-1.309 0.873-2.183s-0.291-1.597-0.873-2.171c-0.574-0.582-1.285-0.873-2.134-0.873s-1.565 0.291-2.147 0.873c-0.573 0.574-0.861 1.297-0.861 2.171s0.287 1.6 0.861 2.183zM114.956 9.354c-0.090-0.132-0.143-0.295-0.143-0.47 0-0.465 0.377-0.842 0.842-0.842 0 0 0 0 0 0h16.905c0.287 0 0.555 0.147 0.71 0.388l13.702 21.432c0.083 0.128 0.133 0.285 0.133 0.454 0 0.465-0.377 0.842-0.842 0.842h-16.203c-0 0-0 0-0 0-0.29 0-0.545-0.146-0.697-0.369l-0.002-0.003-14.405-21.432z"></path>
<path fill="none" stroke-linejoin="round" stroke-linecap="round" stroke-miterlimit="4" stroke-width="1.6842" d="M115.211 8.8l-13.642 21.6M115.211 8.8l14.4 21.6"></path>
<path fill="none" stroke-linejoin="round" stroke-linecap="round" stroke-miterlimit="4" stroke-width="1" d="M98.158 30.779h50.779"></path>
<path stroke="none" d="M114.074 24.716c-0.909 2.728-2.653 4.926-3.411 5.684h9.474c-0.632-0.758-2.122-2.804-3.032-4.926s-1.768-6.695-1.895-8.716c-0.126 1.516-0.227 5.229-1.137 7.958z"></path>
<path fill="none"  stroke-linejoin="round" stroke-linecap="round" stroke-miterlimit="4" stroke-width="1.6842" d="M88.835 5.232c0.913-1.213 3.187-1.48 4.466-0.963s2.183 1.229 2.474 1.522c0.003-0.617 0.344-2.093 1.43-3.179s2.098-1.436 3.904-1.297"></path>
</symbol>
<symbol id="open-mail-icon" viewBox="0 0 32 32">
<path d="M8.237 5.12h7.652c0.306 0 0.57-0.25 0.57-0.57s-0.25-0.57-0.57-0.57h-7.652c-0.32 0-0.57 0.25-0.57 0.57s0.25 0.57 0.57 0.57zM8.237 12.856h15.318c0.306 0 0.57-0.25 0.57-0.57 0-0.306-0.264-0.57-0.57-0.57h-15.318c-0.32 0-0.57 0.264-0.57 0.57 0 0.32 0.25 0.57 0.57 0.57zM8.237 9.030h7.652c0.306 0 0.57-0.25 0.57-0.57s-0.25-0.57-0.57-0.57h-7.652c-0.32 0-0.57 0.25-0.57 0.57 0 0.306 0.25 0.57 0.57 0.57z"></path>
<path d="M31.777 12.285c0-0.153-0.083-0.292-0.195-0.403-0.014-0.014-0.014-0.042-0.028-0.042l-3.617-2.797v-8.25c0-0.32-0.25-0.57-0.557-0.57h-22.984c-0.306 0-0.57 0.25-0.57 0.57v8.237l-3.617 2.797c0 0.014 0 0.042-0.014 0.056-0.111 0.111-0.195 0.237-0.195 0.403v19.144c0 0.042 0.028 0.070 0.028 0.097s-0.014 0.056 0 0.083l0.042 0.042c0.028 0.070 0.070 0.111 0.125 0.167 0.028 0.028 0.056 0.056 0.097 0.083l0.042 0.042c0.083 0.042 0.167 0.056 0.25 0.056h30.637c0.083 0 0.167-0.014 0.25-0.056l0.042-0.042c0.042-0.028 0.056-0.056 0.097-0.083 0.042-0.056 0.083-0.097 0.111-0.167l0.042-0.042c0.014-0.028 0-0.056 0-0.083 0-0.042 0.028-0.070 0.028-0.097v-19.144h-0.014zM30.637 13.454v16.821l-10.852-8.417 10.852-8.403zM30.275 12.285l-2.337 1.809v-3.617l2.337 1.809zM4.967 1.363h21.83v13.607l-10.922 8.459-4.007-3.103-6.901-5.357v-13.607zM1.141 13.454l10.838 8.403-10.838 8.417v-16.821zM3.826 10.477v3.617l-2.323-1.809 2.323-1.809zM2.24 30.859l10.685-8.292 2.616 2.031c0.097 0.083 0.223 0.125 0.348 0.125s0.25-0.042 0.348-0.125l2.616-2.031 10.685 8.292h-27.297z"></path>
</symbol>
<symbol id="small-arrow-right-icon" viewBox="0 0 16 32">
<path fill="none" stroke-linejoin="round" stroke-linecap="round" stroke-miterlimit="4" stroke-width="3.2" d="M1.6 2.952l12.8 12.797-12.8 13.299"></path>
</symbol>
<symbol id="star-icon" viewBox="0 0 36 32">
<path d="M17.882 0l3.802 11.706h12.311l-9.958 7.234 3.802 11.708-9.958-7.236-9.958 7.234 3.802-11.706-9.958-7.232h12.311l3.802-11.708z"></path>
</symbol>
<symbol id="telegram-logo" viewBox="0 0 36 32">
<path d="M14.172 20.023l15.424-13.92c0.678-0.602-0.147-0.896-1.045-0.35l-19.038 12.011-8.222-2.566c-1.777-0.544-1.79-1.764 0.399-2.641l32.043-12.356c1.463-0.663 2.876 0.352 2.317 2.592l-5.457 25.715c-0.38 1.826-1.485 2.263-3.014 1.419l-8.314-6.14-3.996 3.883c-0.011 0.015-0.023 0.026-0.036 0.038-0.448 0.435-0.817 0.796-1.626 0.796l0.565-8.48z"></path>
</symbol>
<symbol id="ticket-icon" viewBox="0 0 32 32">
<path fill="none" stroke-linejoin="round" stroke-linecap="round" stroke-miterlimit="4" stroke-width="2" d="M12 7v18M3 20.899c0 0 0 0 0-0 0-0.481 0.34-0.883 0.793-0.978l0.006-0.001c1.839-0.386 3.2-1.994 3.2-3.92s-1.361-3.534-3.174-3.915l-0.026-0.005c-0.46-0.095-0.8-0.497-0.8-0.978 0-0 0-0.001 0-0.001v0-3.101c0-0.552 0.448-1 1-1v0h24c0.552 0 1 0.448 1 1v0 3.101c0 0 0 0 0 0 0 0.481-0.34 0.883-0.794 0.978l-0.006 0.001c-1.839 0.386-3.2 1.994-3.2 3.92s1.361 3.534 3.174 3.915l0.026 0.005c0.46 0.095 0.8 0.497 0.8 0.978 0 0 0 0.001 0 0.001v-0 3.101c0 0.552-0.448 1-1 1v0h-24c-0.552 0-1-0.448-1-1v0-3.101z"></path>
</symbol>
<symbol id="users-icon" viewBox="0 0 32 32">
<path d="M16.4 16.293c1.392-1.21 2.267-2.983 2.267-4.96 0-0 0-0 0-0v0c0-3.682-2.985-6.667-6.667-6.667s-6.667 2.985-6.667 6.667v0c0 0 0 0 0 0 0 1.977 0.875 3.75 2.259 4.953l0.008 0.007c-3.723 1.716-6.262 5.414-6.267 9.706v0.001c0 0.736 0.597 1.333 1.333 1.333s1.333-0.597 1.333-1.333v0c0-4.418 3.582-8 8-8s8 3.582 8 8v0c0 0.736 0.597 1.333 1.333 1.333s1.333-0.597 1.333-1.333v0c-0.004-4.292-2.543-7.991-6.201-9.679l-0.066-0.027zM12 15.333c-2.209 0-4-1.791-4-4s1.791-4 4-4v0c2.209 0 4 1.791 4 4s-1.791 4-4 4v0zM24.987 15.76c1.044-1.171 1.682-2.725 1.682-4.427 0-3.682-2.985-6.667-6.667-6.667-0.001 0-0.001 0-0.002 0h0c-0.736 0-1.333 0.597-1.333 1.333s0.597 1.333 1.333 1.333v0c2.209 0 4 1.791 4 4v0c-0.004 1.469-0.799 2.751-1.981 3.443l-0.019 0.010c-0.401 0.235-0.665 0.664-0.665 1.154 0 0.463 0.236 0.871 0.594 1.11l0.005 0.003 0.52 0.347 0.173 0.093c3.179 1.533 5.334 4.732 5.334 8.433 0 0.026-0 0.052-0 0.078l0-0.004c0 0.736 0.597 1.333 1.333 1.333s1.333-0.597 1.333-1.333v0c0-0.019 0-0.041 0-0.064 0-4.271-2.231-8.020-5.591-10.147l-0.049-0.029z"></path>
</symbol>
<symbol id="vkontakte-logo" viewBox="0 0 52 32">
<path d="M42.746 14.775s6.775-9.568 7.453-12.71c0.224-1.12-0.271-1.748-1.44-1.748h-5.879c-1.347 0-1.841 0.582-2.246 1.437 0 0-3.183 6.778-7.049 11.043-1.242 1.382-1.873 1.795-2.56 1.795-0.553 0-0.806-0.46-0.806-1.705v-10.909c0-1.527-0.18-1.978-1.437-1.978h-9.437c-0.716 0-1.167 0.416-1.167 0.989 0 1.434 2.202 1.76 2.202 5.655v8.038c0 1.617-0.093 2.246-0.852 2.246-2.016 0.003-6.822-6.959-9.521-14.863-0.535-1.615-1.12-2.065-2.644-2.065h-5.882c-0.852 0-1.481 0.582-1.481 1.437 0 1.571 1.841 8.847 9.068 18.589 4.852 6.554 11.229 10.103 16.975 10.103 3.5 0 4.355-0.582 4.355-2.065v-5.033c0-1.254 0.495-1.798 1.213-1.798 0.806 0 2.234 0.262 5.568 3.549 3.951 3.77 4.218 5.341 6.374 5.341h6.604c0.669 0 1.3-0.311 1.3-1.437 0-1.481-1.932-4.131-4.893-7.273-1.213-1.617-3.188-3.366-3.82-4.175-0.896-0.937-0.628-1.475 0-2.464z"></path>
</symbol>
<symbol id="whatsapp-logo" viewBox="0 0 32 32">
<path d="M15.8 31.347h-0.007c0 0 0 0-0 0-2.745 0-5.324-0.706-7.567-1.947l0.080 0.041-8.307 2.178 2.223-8.118c-1.315-2.242-2.092-4.937-2.092-7.814 0-0.006 0-0.013 0-0.019v0.001c0.003-8.642 7.032-15.668 15.668-15.668 0.012-0 0.026-0 0.040-0 4.316 0 8.222 1.757 11.042 4.594l0.001 0.001c2.833 2.821 4.586 6.724 4.586 11.037 0 0.017-0 0.034-0 0.051v-0.003c-0.003 8.637-7.030 15.663-15.668 15.667zM8.691 26.604l0.475 0.281c1.895 1.141 4.182 1.816 6.627 1.816 0 0 0 0 0 0h0.007c7.176 0 13.019-5.843 13.022-13.022 0-0.012 0-0.025 0-0.039 0-3.585-1.457-6.829-3.811-9.173l-0-0c-2.344-2.36-5.591-3.821-9.179-3.821-0.009 0-0.019 0-0.028 0h0.001c-7.183 0-13.026 5.843-13.029 13.022 0 2.459 0.689 4.856 1.991 6.931l0.31 0.492-1.314 4.805 4.928-1.292zM23.158 19.052c0.271 0.133 0.455 0.222 0.536 0.354 0.098 0.163 0.098 0.947-0.229 1.861s-1.89 1.75-2.643 1.861c-0.674 0.101-1.528 0.143-2.466-0.155-0.569-0.18-1.297-0.421-2.232-0.825-3.672-1.583-6.151-5.142-6.619-5.814-0.032-0.047-0.054-0.079-0.077-0.11l0.009 0.014-0.007-0.005c-0.207-0.276-1.595-2.129-1.595-4.045 0-1.802 0.886-2.749 1.293-3.183l0.076-0.083c0.257-0.292 0.628-0.478 1.042-0.488l0.002-0c0.261 0 0.522 0 0.751 0.012l0.088 0.002c0.227 0 0.512-0.003 0.792 0.67 0.109 0.259 0.268 0.645 0.435 1.049 0.337 0.82 0.707 1.726 0.775 1.858 0.098 0.197 0.162 0.424 0.032 0.687l-0.056 0.111c-0.092 0.207-0.205 0.385-0.339 0.544l0.003-0.003-0.2 0.241c-0.135 0.165-0.269 0.328-0.387 0.446-0.195 0.194-0.399 0.406-0.17 0.798 0.227 0.392 1.014 1.674 2.178 2.712 1.251 1.117 2.338 1.588 2.89 1.827 0.106 0.045 0.194 0.084 0.258 0.116 0.392 0.195 0.62 0.163 0.849-0.098 0.227-0.261 0.977-1.145 1.24-1.536 0.261-0.391 0.522-0.327 0.881-0.195s2.284 1.078 2.675 1.273l0.214 0.104z"></path>
</symbol>
<symbol id="youtube-logo" viewBox="0 0 47 32">
<path d="M44.851 6.872s-0.444-3.121-1.801-4.495c-1.722-1.803-3.652-1.815-4.536-1.92-6.342-0.457-15.851-0.457-15.851-0.457h-0.019s-9.512 0-15.849 0.457c-0.888 0.107-2.82 0.117-4.542 1.92-1.355 1.374-1.798 4.493-1.798 4.493s-0.454 3.671-0.454 7.336v3.437c0 3.665 0.454 7.33 0.454 7.33s0.442 3.125 1.8 4.497c1.724 1.805 3.987 1.747 4.994 1.937 3.625 0.348 15.405 0.456 15.405 0.456s9.519-0.013 15.859-0.471c0.885-0.107 2.816-0.117 4.538-1.92 1.357-1.374 1.801-4.497 1.801-4.497s0.452-3.665 0.452-7.33v-3.437c0-3.671-0.452-7.336-0.452-7.336zM17.976 21.807v-12.728l12.239 6.385-12.239 6.344z"></path>
</symbol>
</defs>
</svg>
