<svg xmlns="http://www.w3.org/2000/svg" viewBox="0 2500 65 65" xml:space="preserve"><path fill="#E5E5E5" d="M64.5 2561.5c0 1.7-1.3 3-3 3h-58c-1.7 0-3-1.3-3-3v-58c0-1.7 1.3-3 3-3h58c1.7 0 3 1.3 3 3v58z"/><path fill="#265123" d="M22.3 2520.4c-.4-.7 0-1.6.8-1.6h20c.3 0 .7.2.8.5l16.2 25.4c.4.7-.1 1.5-.8 1.5H40.2c-.3 0-.6-.2-.8-.4l-17.1-25.4z"/><path fill="none" stroke="#244921" stroke-linecap="round" stroke-miterlimit="10" d="m22.6 2519.7-16.1 25.6M22.6 2519.7l17 25.6M2.5 2545.7h60"/><path fill="#244921" d="M21.3 2538.5c-1.1 3.2-3.1 5.9-4.1 6.7h11.2c-.8-.9-2.5-3.3-3.6-5.8s-2.1-8-2.3-10.3c0 1.9-.1 6.2-1.2 9.4z"/><path fill="none" stroke="#FFF" stroke-width=".5" stroke-linecap="round" stroke-linejoin="round" d="m34 2525.3 8.9 12.3M40.4 2529l8.2 11.2"/></svg>