<svg width="76" height="33" viewBox="0 0 76 33" fill="none" xmlns="http://www.w3.org/2000/svg">
<path fill-rule="evenodd" clip-rule="evenodd" d="M72.276 10.9743C72.276 7.82778 70.984 7.21383 68.932 7.21383C67.032 7.21383 66.424 8.13476 66.348 9.97663C66.272 15.272 76.076 12.1255 75.924 21.4883C75.848 25.479 73.188 28.165 68.628 28.165C63.156 28.165 60.876 24.7115 61.332 19.9534H64.98C64.676 23.5603 66.652 24.4813 68.628 24.4813C70.3 24.4813 71.592 23.8673 71.592 21.6418C71.744 16.1929 61.864 19.0324 62.016 9.97663C62.092 5.52546 65.284 3.53012 69.084 3.53012C75.316 3.53012 76 8.2115 75.924 11.051H72.276V10.9743ZM54.72 27.3208V4.22081H59.128V27.4743H54.72V27.3208ZM51.072 15.4255V25.4022H50.768C49.248 26.9371 46.664 28.165 44.46 28.165C40.736 28.165 36.328 26.3999 36.328 19.9534V12.4324C36.328 6.52315 39.672 3.45337 44.308 3.45337C49.324 3.45337 50.616 6.67663 50.996 9.36268V11.665H47.348V10.5906C47.12 7.98127 45.98 7.21383 44.156 7.21383C42.18 7.21383 40.736 8.74872 40.736 12.7394V19.5696C40.812 25.7092 45.98 24.558 47.348 23.0999V19.1859H43.7V15.4255H51.072Z" fill="#414142"/>
<path d="M31.616 16.5C31.616 25.6326 24.548 33 15.808 33C7.068 33 0 25.6326 0 16.5C0 7.36744 7.068 0 15.808 0C24.548 0 31.616 7.36744 31.616 16.5Z" fill="#77BB42"/>
<path d="M29.868 10.9744C29.868 6.83017 27.056 3.60693 22.42 3.60693C16.796 3.60693 13.984 7.98133 14.972 13.6604H18.468C18.164 8.74878 20.064 7.2139 21.964 7.2139C24.396 7.2139 25.46 9.82319 25.46 11.3581C25.46 15.3488 20.824 19.4162 14.06 25.5557V28.3185H29.868V24.6348H20.52C23.94 21.7186 29.868 16.9604 29.868 10.9744Z" fill="white"/>
</svg>
