<svg width="20" height="22" fill="none" xmlns="http://www.w3.org/2000/svg"><path fill-rule="evenodd" clip-rule="evenodd" d="M12.74 2.909a2.91 2.91 0 0 1-1.8 2.69.233.233 0 0 0-.139.218v.97c0 .535.434.97.97.97h1.94a.97.97 0 0 1 0 1.939h-1.94a.97.97 0 0 0-.97.97v5.301c0 .667.303 1.227.728 1.318.369.08 1.219-.208 2.122-.514l.408-.137c.836-.279 1.984-1.177 2.454-1.59l-1.515-1.198 4.666-1.378v4.726l-1.576-1.045c-.278.465-1.103 1.609-2.181 2.47-1.024.816-1.996 1.109-2.836 1.362-.265.08-.518.156-.755.243-.68.251-1.28.886-1.672 1.299-.175.185-.308.326-.388.368-.206.109-.369.116-.424.106-.056.01-.218.003-.424-.106-.08-.042-.213-.183-.389-.368-.39-.413-.991-1.048-1.672-1.299-.236-.087-.489-.163-.755-.243-.84-.253-1.81-.546-2.835-1.363-1.079-.86-1.904-2.004-2.181-2.469L0 17.194v-4.726l4.666 1.378-1.515 1.197c.47.414 1.618 1.312 2.454 1.59l.408.138c.903.306 1.753.593 2.122.514.424-.09.727-.65.727-1.316v-5.304a.97.97 0 0 0-.97-.97H5.955a.97.97 0 0 1 0-1.939h1.939a.97.97 0 0 0 .97-.97v-.969a.233.233 0 0 0-.139-.218 2.91 2.91 0 1 1 4.017-2.69Zm-2.908.97a.97.97 0 1 0 0-1.94.97.97 0 0 0 0 1.94Z" fill="#000"/></svg>