<svg width="144" height="24" viewBox="0 0 144 24" fill="none" xmlns="http://www.w3.org/2000/svg">
<path d="M8.90971 13.0971C8.90914 11.5903 7.95657 10.6583 6.48457 10.6583H4.42171C3.76 10.7514 3.46 11.1531 3.46 11.9297V15.3046L6.48457 15.3086C7.98057 15.3086 8.90914 14.6451 8.90971 13.0971ZM3.46 7.652H6.18229C7.712 7.652 8.25657 6.67943 8.25657 5.66343C8.25657 4.32914 7.46114 3.532 6.13429 3.532H4.58571C3.812 3.58171 3.46 3.98057 3.46 4.816V7.652ZM12.4657 13.3434C12.4657 16.5463 10.0206 18.7829 6.23543 18.7829H0V2.78286C0.0114286 1.76286 1.06971 0.734286 2.08 0.696H6.15829C9.564 0.696 11.764 2.41257 11.764 5.25829C11.764 7.12114 10.8337 8.19771 10.2789 8.676L9.80114 9.08571L10.348 9.39486C11.6754 10.1434 12.4657 11.6189 12.4657 13.3434ZM84.6486 11.8143C84.6486 8.90286 83.0771 8.56343 81.9 8.56343C79.5229 8.56343 79.34 10.9571 79.34 11.6909C79.34 13.3577 80.06 15.1371 82.0943 15.1371C83.26 15.1371 84.6486 14.56 84.6486 11.8143ZM88.0257 5.56457L88.0143 17.5611C88.0143 22.1366 84.5972 23.7623 81.4314 23.7623C79.8943 23.7623 78.1971 23.3474 76.8886 22.6509L76.6314 22.5143L77.0486 21.4457L77.34 20.7103C77.66 19.9171 78.1229 19.7194 78.9114 19.9589C79.5172 20.1783 80.42 20.4223 81.4143 20.4223C83.4543 20.4223 84.58 19.4571 84.58 17.7109V17.3463L84.2886 17.5611C83.5514 18.1257 82.6143 18.4029 81.4314 18.4029C77.9686 18.4029 75.5514 15.6829 75.5514 11.7886C75.5514 7.892 77.8886 5.27314 81.3629 5.27314C83.1114 5.27314 84.1857 5.89086 84.7857 6.412L84.9571 6.56114L85.06 6.36114C85.3286 5.84571 85.8714 5.56457 86.58 5.56457H88.0257ZM38.6897 12.1051C38.6897 9.98457 37.3777 8.50114 35.5069 8.50114C33.644 8.50114 32.3474 9.98457 32.3474 12.1051C32.3474 14.2274 33.6446 15.712 35.5074 15.712C37.408 15.712 38.6903 14.2617 38.6903 12.1051H38.6897ZM42.336 12.1051C42.336 16.0309 39.4583 18.88 35.5074 18.88C31.5623 18.88 28.7017 16.0309 28.7017 12.1051C28.7017 8.18172 31.5623 5.332 35.5074 5.332C39.4583 5.332 42.336 8.18172 42.336 12.1051ZM60.2543 18.6726V7.58914C60.2543 6.252 59.62 5.60343 58.3 5.60343L56.8371 5.59771L56.8486 15.7143H56.8371L56.8486 18.7829H60.2543V18.6726ZM70.0029 5.30171C68.1 5.30171 66.8886 6.15143 66.2086 6.86743L65.98 7.09886L65.9 6.78457C65.7 6.01657 65.0257 5.59314 64.0143 5.59314H62.38L62.3914 18.676H65.8429V12.6463C65.8429 12.0566 65.9229 11.5457 66.0771 11.0783C66.4886 9.66514 67.4257 8.78743 68.8714 8.78743C70.0314 8.78743 70.7 9.40172 70.7 10.9897V16.6874C70.7 18.0417 71.54 18.676 72.8886 18.676H74.1629V10.4349C74.1629 7.12857 73.0429 5.30171 70.0029 5.30171ZM52.2491 12.444C52.1122 12.1782 51.9387 11.933 51.7337 11.7154L51.6149 11.5891L51.7406 11.468C51.9211 11.2766 52.1063 11.0503 52.284 10.7874L55.7623 5.59714H51.54L48.9269 9.65657C48.7789 9.87429 48.48 9.984 48.0331 9.984H47.1314V2.31143C47.1314 0.777143 46.0811 0 45.0514 0H43.6651L43.6686 18.6806H47.1314V13.2474H47.7886C48.2143 13.2474 48.5046 13.2966 48.6389 13.5286L50.7023 17.4389C51.2777 18.5 51.8531 18.6806 52.9343 18.6806H55.8006L53.6657 15.136L52.2491 12.444ZM23.7989 12.1051C23.7989 9.98457 22.4903 8.50114 20.6166 8.50114C18.7537 8.50114 17.4589 9.98457 17.4589 12.1051C17.4589 14.2274 18.7537 15.712 20.6166 15.712C22.5171 15.712 23.7994 14.2617 23.7994 12.1051H23.7989ZM27.4446 12.1051C27.4446 16.0309 24.5726 18.88 20.6166 18.88C16.6754 18.88 13.8154 16.0309 13.8154 12.1051C13.8154 8.18172 16.6754 5.332 20.6166 5.332C24.5726 5.332 27.444 8.18172 27.444 12.1051H27.4446ZM56.4366 2.17714C56.4366 0.973714 57.408 0 58.5966 0C59.7909 0 60.7623 0.973714 60.7623 2.17714C60.7623 3.37771 59.7909 4.35257 58.5966 4.35257C57.408 4.35257 56.4366 3.37771 56.4366 2.17714Z" fill="#003580"/>
<path d="M106.903 14.3238C106.891 14.3358 105.36 15.9512 103.354 15.9512C101.52 15.9512 99.6686 14.8232 99.6686 12.3072C99.6686 10.1312 101.103 8.61179 103.16 8.61179C103.829 8.61179 104.583 8.85236 104.703 9.25579L104.72 9.32436C104.994 10.2392 105.823 10.2861 105.983 10.2861L107.931 10.2884V8.58322C107.931 6.33408 105.08 5.51807 103.16 5.51807C99.0571 5.51807 96.08 8.38494 96.08 12.3335C96.08 16.2792 99.0229 19.1438 103.086 19.1438C106.606 19.1438 108.52 16.8192 108.537 16.7947L108.64 16.6695L107.103 14.1055L106.903 14.3238ZM139.674 5.51807C138.131 5.51807 136.714 6.24379 135.76 7.45694L135.491 7.80036L135.28 7.41636C134.589 6.15751 133.406 5.51807 131.754 5.51807C130.029 5.51807 128.874 6.48551 128.331 7.06151L127.983 7.44208L127.846 6.93922C127.651 6.21522 127.006 5.81579 126.034 5.81579H124.606L124.594 18.8478H128.006V13.0952C128.006 12.5918 128.069 12.0929 128.194 11.5701C128.531 10.1804 129.463 8.68665 131.029 8.83522C131.994 8.92894 132.463 9.67751 132.463 11.1232V18.8478H135.68V13.0952C135.68 12.4644 135.743 11.9941 135.88 11.5209C136.171 10.1952 137.354 8.83351 138.869 8.83351C139.96 8.83351 140.531 9.45408 140.531 11.1232V16.9421C140.531 18.2592 141.303 18.8478 142.611 18.8478H143.994L144 10.5278C144 7.20379 142.543 5.51807 139.674 5.51807ZM116.377 5.73865C112.434 5.73865 109.343 8.58894 109.343 12.5129C109.343 16.4369 112.434 19.2878 116.377 19.2878C120.331 19.2878 123.206 16.4369 123.206 12.5129C123.206 8.58894 120.331 5.73865 116.377 5.73865ZM90.4629 16.8261C90.4629 15.6227 91.4286 14.6489 92.6229 14.6489C93.8171 14.6489 94.7886 15.6227 94.7886 16.8261C94.7886 18.0272 93.8171 19.0021 92.6229 19.0021C91.4286 19.0021 90.4629 18.0272 90.4629 16.8261ZM116.377 16.1192C114.514 16.1192 113.217 14.6347 113.217 12.5129C113.217 10.3918 114.514 8.90836 116.377 8.90836C118.246 8.90836 119.56 10.3918 119.56 12.5129C119.56 14.6689 118.28 16.1192 116.377 16.1192Z" fill="#0896FF"/>
</svg>
