<svg width="20" height="20" fill="none" xmlns="http://www.w3.org/2000/svg"><path fill-rule="evenodd" clip-rule="evenodd" d="M10.833 8.333c.46 0 .834.373.834.833v7.5c0 .46-.373.834-.834.834h-7.5a.833.833 0 0 1-.833-.834v-7.5c0-.46.373-.833.833-.833h7.5Zm2.5.833a2.5 2.5 0 0 0-2.5-2.5h-7.5a2.5 2.5 0 0 0-2.5 2.5v7.5a2.5 2.5 0 0 0 2.5 2.5h7.5a2.5 2.5 0 0 0 2.5-2.5v-7.5Z" fill="#BF5002"/><path fill-rule="evenodd" clip-rule="evenodd" d="M16.667 2.5a.833.833 0 0 1 .833.833v7.5a.833.833 0 0 1-.833.834h-.834a.833.833 0 0 0 0 1.667h.834a2.5 2.5 0 0 0 2.5-2.5v-7.5a2.5 2.5 0 0 0-2.5-2.5h-7.5a2.5 2.5 0 0 0-2.5 2.5v.833a.833.833 0 1 0 1.666 0v-.833a.833.833 0 0 1 .834-.834h7.5Z" fill="#BF5002"/></svg>