<svg width="29" height="41" viewBox="0 0 29 41" fill="none" xmlns="http://www.w3.org/2000/svg">
<path d="M19.1364 0.655973C17.7924 0.231991 16.3525 0 14.8646 0C10.5207 0 6.6329 1.95992 4.033 5.04779L10.7127 10.6636L19.1364 0.655973Z" fill="#1A73E8"/>
<path d="M4.03295 5.04761C1.89139 7.5912 0.718274 10.8102 0.721074 14.1352C0.721074 16.7911 1.24906 18.951 2.12102 20.879L10.7127 10.6634L4.03295 5.04761Z" fill="#EA4335"/>
<path d="M14.8645 8.73549C15.8957 8.73643 16.9052 9.03202 17.774 9.58745C18.6428 10.1429 19.3349 10.935 19.7686 11.8706C20.2023 12.8061 20.3597 13.8461 20.2222 14.8681C20.0846 15.8901 19.6579 16.8515 18.9923 17.6391L27.408 7.63153C25.6806 4.30345 22.7026 1.79731 19.1283 0.663818L10.7207 10.6714C11.2273 10.0647 11.8611 9.57683 12.5771 9.24229C13.2932 8.90774 14.0741 8.73472 14.8645 8.73549Z" fill="#4285F4"/>
<path d="M14.8645 19.551C11.8806 19.551 9.45671 17.1271 9.45671 14.1432C9.45321 12.8727 9.90116 11.6423 10.7207 10.6714L2.121 20.887C3.59294 24.1428 6.03285 26.7587 8.54475 30.0546L18.9923 17.6391C18.4848 18.2388 17.8524 18.7206 17.1395 19.0508C16.4266 19.381 15.6502 19.5517 14.8645 19.551Z" fill="#FBBC04"/>
<path d="M18.7843 33.4384C23.5042 26.0627 28.9999 22.7109 28.9999 14.1352C28.9999 11.7833 28.424 9.5674 27.408 7.61548L8.55273 30.0546C9.3527 31.1025 10.1607 32.2145 10.9446 33.4464C13.8085 37.8782 13.0166 40.5341 14.8645 40.5341C16.7124 40.5341 15.9205 37.8702 18.7843 33.4384Z" fill="#34A853"/>
</svg>
