<svg width="17" height="17" fill="none" xmlns="http://www.w3.org/2000/svg"><path d="M8.464 1.525c2.26 0 2.528.009 3.42.05.826.038 1.273.175 1.572.292.395.153.677.336.973.633.296.296.48.578.633.973.116.298.254.746.291 1.571.041.893.05 1.16.05 3.42s-.009 2.528-.05 3.42c-.037.826-.175 1.273-.291 1.572a2.625 2.625 0 0 1-.633.973c-.296.296-.578.48-.973.633-.299.116-.746.254-1.572.291-.892.041-1.16.05-3.42.05s-2.527-.009-3.42-.05c-.825-.037-1.273-.175-1.571-.291a2.626 2.626 0 0 1-.973-.633 2.613 2.613 0 0 1-.633-.973c-.117-.299-.254-.746-.292-1.572-.041-.892-.05-1.16-.05-3.42s.009-2.527.05-3.42c.038-.825.175-1.273.292-1.571.154-.395.336-.677.633-.973.296-.297.578-.48.973-.633.298-.117.746-.254 1.571-.292.893-.041 1.16-.05 3.42-.05Zm0-1.525c-2.298 0-2.587.01-3.49.05-.9.041-1.515.185-2.055.393a4.152 4.152 0 0 0-1.5.977c-.47.47-.76.943-.976 1.5-.208.538-.352 1.153-.392 2.054C.01 5.877 0 6.164 0 8.464c0 2.298.01 2.587.05 3.49.041.901.185 1.516.393 2.055.217.556.506 1.029.977 1.5.47.47.943.76 1.5.976.538.209 1.153.352 2.054.393.903.04 1.19.05 3.49.05 2.3 0 2.587-.01 3.49-.05.901-.041 1.516-.184 2.055-.393a4.153 4.153 0 0 0 1.5-.977c.47-.47.76-.943.976-1.5.209-.537.352-1.153.393-2.054.04-.903.05-1.19.05-3.49 0-2.298-.01-2.587-.05-3.49-.041-.9-.184-1.515-.393-2.055a4.153 4.153 0 0 0-.977-1.5c-.47-.47-.943-.76-1.5-.976-.537-.208-1.153-.352-2.054-.392C11.051.01 10.762 0 8.464 0Z" fill="#000"/><path d="M8.464 4.118a4.347 4.347 0 1 0 0 8.693 4.347 4.347 0 0 0 0-8.693Zm0 7.167a2.821 2.821 0 1 1 0-5.643 2.821 2.821 0 0 1 0 5.643ZM12.982 4.96a1.015 1.015 0 1 0 0-2.03 1.015 1.015 0 0 0 0 2.03Z" fill="#000"/></svg>