<svg width="178" height="38" fill="none" xmlns="http://www.w3.org/2000/svg"><path d="M15.114 36.1h-5.04l-5.065-7.888V36.1H.498V18.46h4.51v7.409l4.814-7.41h5.04l-5.594 8.569 5.846 9.072ZM20.907 31.866h6.829V36.1h-11.34V18.46H27.61v4.208h-6.703v2.445h6.073v4.158h-6.073v2.595ZM47.875 18.46V36.1h-4.486v-9.5l-4.284 7.08h-.454l-4.259-7.055V36.1h-4.51V18.46h4.51l4.486 7.535 4.511-7.535h4.486ZM64.285 18.46V36.1h-4.511V22.82h-4.586V36.1h-4.511V18.46h13.608ZM76.794 36.1v-8.87L70.57 36.1h-3.503V18.46h4.51v8.87l6.225-8.87h3.478V36.1h-4.486ZM93.547 18.46h4.486V36.1h-4.486V29.32h-4.964V36.1h-4.511V18.46h4.51v6.527h4.965V18.46ZM111.264 18.46v4.36h-5.922V36.1h-4.511V18.46h10.433ZM1.776 10.216H6.24V11.8H.12V1.72h6.048v1.584H1.776v2.62h4.032v1.57H1.776v2.722ZM13.689 6.572c.441.23.787.548 1.037.95.25.404.374.87.374 1.398 0 .825-.293 1.512-.878 2.059-.586.547-1.301.82-2.146.82h-4.32V1.72h4.003c.826 0 1.522.27 2.088.807.576.528.864 1.19.864 1.987 0 .874-.34 1.56-1.022 2.06Zm-1.93-3.297H9.412v2.65h2.347c.365 0 .672-.125.922-.375.25-.26.374-.576.374-.95a1.27 1.27 0 0 0-.374-.936 1.23 1.23 0 0 0-.922-.39Zm.317 6.97c.384 0 .705-.135.965-.404.268-.278.403-.614.403-1.008a1.35 1.35 0 0 0-.403-.993 1.265 1.265 0 0 0-.965-.418H9.412v2.823h2.664ZM20.26 1.72c.95 0 1.743.316 2.376.95.643.634.965 1.42.965 2.362 0 .93-.322 1.718-.965 2.361-.633.634-1.425.95-2.376.95h-2.059V11.8h-1.656V1.72h3.715Zm0 5.069c.49 0 .893-.164 1.21-.49.317-.336.475-.759.475-1.267 0-.51-.158-.927-.475-1.253-.317-.336-.72-.504-1.21-.504h-2.059v3.514h2.06ZM33.378 10.475c-1.008 1.008-2.241 1.512-3.7 1.512-1.46 0-2.698-.504-3.716-1.512-1.008-1.018-1.512-2.256-1.512-3.715 0-1.46.504-2.693 1.512-3.701 1.018-1.018 2.256-1.527 3.716-1.527 1.459 0 2.692.51 3.7 1.527 1.018 1.008 1.527 2.241 1.527 3.7 0 1.46-.509 2.698-1.527 3.716Zm-6.25-1.123c.692.681 1.542 1.022 2.55 1.022 1.008 0 1.852-.34 2.534-1.022.691-.691 1.037-1.555 1.037-2.592 0-1.037-.346-1.896-1.037-2.578-.682-.691-1.526-1.037-2.534-1.037-1.008 0-1.858.346-2.55 1.037-.68.682-1.022 1.54-1.022 2.578 0 1.037.341 1.9 1.023 2.592ZM136.51 11.108a1 1 0 0 1 .83-1.558h20.075c.341 0 .659.174.843.461l16.271 25.45a1 1 0 0 1-.842 1.539h-19.241a1 1 0 0 1-.83-.442l-17.106-25.45Z" fill="#333"/><path d="m136.813 10.45-16.2 25.65M136.813 10.45l17.1 25.65" stroke="#333" stroke-width="2" stroke-linecap="round" stroke-linejoin="round"/><path d="M116.563 36.55h60.3" stroke="#333" stroke-linecap="round" stroke-linejoin="round"/><path d="M135.463 29.35c-1.08 3.24-3.15 5.85-4.05 6.75h11.25c-.75-.9-2.52-3.33-3.6-5.85-1.08-2.52-2.1-7.95-2.25-10.35-.15 1.8-.27 6.21-1.35 9.45Z" fill="#333"/><path d="M105.492 6.213c1.084-1.441 3.785-1.757 5.303-1.144 1.518.613 2.592 1.46 2.938 1.807.003-.733.409-2.485 1.698-3.775s2.491-1.705 4.636-1.54" stroke="#333" stroke-width="2" stroke-linecap="round" stroke-linejoin="round"/><path d="m148.267 16 8.938 12.438M154.724 19.714l8.183 11.32" stroke="#fff" stroke-width=".5" stroke-linecap="round" stroke-linejoin="round"/></svg>