<svg width="46" height="46" fill="none" xmlns="http://www.w3.org/2000/svg"><g clip-path="url(#a)" fill="#fff"><path d="M11.84 7.36h11c.44 0 .82-.36.82-.82 0-.46-.36-.82-.82-.82h-11c-.46 0-.82.36-.82.82 0 .46.36.82.82.82ZM11.84 18.48h22.02c.44 0 .82-.36.82-.82 0-.44-.38-.82-.82-.82H11.84c-.46 0-.82.38-.82.82 0 .46.36.82.82.82ZM11.84 12.98h11c.44 0 .82-.36.82-.82 0-.46-.36-.82-.82-.82h-11c-.46 0-.82.36-.82.82 0 .44.36.82.82.82Z"/><path d="M45.68 17.66c0-.22-.12-.42-.28-.58-.02-.02-.02-.06-.04-.06L40.16 13V1.14c0-.46-.36-.82-.8-.82H6.32c-.44 0-.82.36-.82.82v11.84L.3 17c0 .02 0 .06-.02.08-.16.16-.28.34-.28.58v27.52c0 .06.04.1.04.14 0 .04-.02.08 0 .12l.06.06c.04.1.1.16.18.24.04.04.08.08.14.12l.06.06c.12.06.24.08.36.08h44.04c.12 0 .24-.02.36-.08l.06-.06c.06-.04.08-.08.14-.12.06-.08.12-.14.16-.24l.06-.06c.02-.04 0-.08 0-.12 0-.06.04-.1.04-.14V17.66h-.02Zm-1.64 1.68v24.18l-15.6-12.1 15.6-12.08Zm-.52-1.68-3.36 2.6v-5.2l3.36 2.6ZM7.14 1.96h31.38V21.52l-9.94 7.7-5.76 4.46-5.76-4.46-9.92-7.7V1.96Zm-5.5 17.38 15.58 12.08-15.58 12.1V19.34Zm3.86-4.28v5.2l-3.34-2.6 3.34-2.6Zm-2.28 29.3 15.36-11.92 3.76 2.92c.14.12.32.18.5.18s.36-.06.5-.18l3.76-2.92 15.36 11.92H3.22Z"/></g><defs><clipPath id="a"><path fill="#fff" transform="translate(0 .32)" d="M0 0h45.68v45.68H0z"/></clipPath></defs></svg>