<svg width="18" height="11" fill="none" xmlns="http://www.w3.org/2000/svg"><path d="M14.694 5.079S17.023 1.79 17.256.71c.077-.385-.093-.601-.495-.601H14.74c-.463 0-.633.2-.772.494 0 0-1.094 2.33-2.423 3.796-.427.475-.644.617-.88.617-.19 0-.277-.158-.277-.586V.68c0-.525-.062-.68-.494-.68H6.65c-.246 0-.401.143-.401.34 0 .493.757.605.757 1.944v2.763c0 .556-.032.772-.293.772C6.02 5.82 4.368 3.427 3.44.71 3.256.155 3.055 0 2.531 0H.509C.216 0 0 .2 0 .494c0 .54.633 3.041 3.117 6.39 1.668 2.253 3.86 3.473 5.835 3.473 1.203 0 1.497-.2 1.497-.71v-1.73c0-.431.17-.618.417-.618.277 0 .768.09 1.914 1.22 1.358 1.296 1.45 1.836 2.191 1.836h2.27c.23 0 .447-.107.447-.494 0-.509-.664-1.42-1.682-2.5-.417-.556-1.096-1.157-1.313-1.435-.308-.322-.216-.507 0-.847Z" fill="#000"/></svg>