<svg width="19" height="19" fill="none" xmlns="http://www.w3.org/2000/svg"><path fill-rule="evenodd" clip-rule="evenodd" d="M9.381 18.612h-.004a9.293 9.293 0 0 1-4.445-1.132L0 18.773l1.32-4.82a9.286 9.286 0 0 1-1.242-4.65C.08 4.172 4.253 0 9.381 0a9.243 9.243 0 0 1 6.58 2.728 9.247 9.247 0 0 1 2.723 6.582c-.002 5.128-4.174 9.3-9.303 9.302ZM5.16 15.796l.282.167a7.72 7.72 0 0 0 3.935 1.078h.004c4.261 0 7.73-3.469 7.732-7.732a7.686 7.686 0 0 0-2.263-5.47A7.68 7.68 0 0 0 9.384 1.57c-4.265 0-7.734 3.469-7.736 7.732 0 1.46.409 2.883 1.182 4.115l.184.292-.78 2.853 2.926-.767Zm8.59-4.484c.161.079.27.132.318.21.058.097.058.562-.136 1.105-.194.543-1.122 1.039-1.569 1.105-.4.06-.907.085-1.464-.092-.338-.107-.77-.25-1.325-.49-2.18-.94-3.652-3.053-3.93-3.452a2.788 2.788 0 0 0-.04-.057L5.6 9.638c-.123-.164-.947-1.264-.947-2.402 0-1.07.526-1.632.768-1.89l.045-.049a.854.854 0 0 1 .62-.29c.155 0 .31 0 .446.007l.052.001c.135 0 .304-.002.47.398.065.154.159.383.258.623.2.487.42 1.025.46 1.103.058.117.096.252.019.408l-.033.066a1.32 1.32 0 0 1-.2.321l-.119.143c-.08.098-.16.195-.23.265-.116.115-.237.241-.101.474.135.233.602.994 1.293 1.61.743.663 1.388.943 1.716 1.085.063.027.115.05.153.069.233.116.368.097.504-.058.135-.155.58-.68.736-.912.155-.232.31-.194.523-.116.213.078 1.356.64 1.588.756l.127.062Z" fill="#58585B"/></svg>