<svg width="25" height="17" fill="none" xmlns="http://www.w3.org/2000/svg"><path d="M23.827 3.651s-.236-1.658-.957-2.388C21.955.305 20.93.299 20.46.243 17.091 0 12.039 0 12.039 0h-.01s-5.053 0-8.42.243C3.137.3 2.111.305 1.196 1.263.476 1.993.241 3.65.241 3.65S0 5.6 0 7.547v1.826c0 1.947.241 3.894.241 3.894s.235 1.66.956 2.389c.916.959 2.118.928 2.653 1.029 1.926.185 8.184.242 8.184.242s5.057-.007 8.425-.25c.47-.057 1.496-.062 2.411-1.02.721-.73.957-2.389.957-2.389s.24-1.947.24-3.894V7.548c0-1.95-.24-3.897-.24-3.897ZM9.55 11.585V4.823l6.502 3.392-6.502 3.37Z" fill="#000"/></svg>